<svg xmlns="http://www.w3.org/2000/svg" xmlns:xlink="http://www.w3.org/1999/xlink" width="500" zoomAndPan="magnify" viewBox="0 0 375 374.999991" height="500" preserveAspectRatio="xMidYMid meet" version="1.0"><defs><g/><clipPath id="1b4b91f789"><path d="M 103 76.773438 L 289.484375 76.773438 L 289.484375 211 L 103 211 Z M 103 76.773438 " clip-rule="nonzero"/></clipPath><clipPath id="d5babf2cd2"><path d="M 93.734375 136 L 275 136 L 275 238.773438 L 93.734375 238.773438 Z M 93.734375 136 " clip-rule="nonzero"/></clipPath></defs><rect x="-37.5" width="450" fill="#ffffff" y="-37.499999" height="449.999989" fill-opacity="1"/><rect x="-37.5" width="450" fill="#ffffff" y="-37.499999" height="449.999989" fill-opacity="1"/><g clip-path="url(#1b4b91f789)"><path fill="#00546c" d="M 215.726562 129.96875 L 183.859375 76.882812 L 151.988281 129.96875 Z M 235.089844 162.222656 L 132.621094 162.222656 L 103.683594 210.417969 L 264.019531 210.417969 Z M 289.484375 209.792969 L 287.214844 209.792969 L 287.214844 201.914062 L 287.167969 201.914062 L 285.0625 209.792969 L 282.84375 209.792969 L 280.835938 201.914062 L 280.789062 201.914062 L 280.789062 209.792969 L 278.519531 209.792969 L 278.519531 199.578125 L 282.273438 199.578125 L 284 206.535156 L 284.050781 206.535156 L 285.863281 199.578125 L 289.484375 199.578125 Z M 276.125 199.578125 L 276.125 201.277344 L 273.5 201.277344 L 273.5 209.789062 L 271.230469 209.789062 L 271.230469 201.277344 L 268.636719 201.277344 L 268.636719 199.578125 Z M 276.125 199.578125 " fill-opacity="1" fill-rule="nonzero"/></g><path fill="#ffffff" d="M 133.472656 186.296875 C 133.472656 178.40625 133.472656 170.890625 143.777344 170.890625 C 150.152344 170.890625 152.71875 174.402344 152.46875 180.808594 L 146.34375 180.808594 C 146.34375 176.839844 145.640625 175.355469 143.777344 175.355469 C 140.265625 175.355469 139.804688 178.660156 139.804688 186.296875 C 139.804688 193.941406 140.265625 197.246094 143.777344 197.246094 C 146.675781 197.246094 146.550781 193.527344 146.632812 191.171875 L 152.800781 191.171875 C 152.800781 199.144531 149.617188 201.707031 143.777344 201.707031 C 133.472656 201.707031 133.472656 194.105469 133.472656 186.296875 Z M 158.011719 201.210938 L 158.011719 171.386719 L 164.265625 171.386719 L 164.265625 201.210938 Z M 177.632812 201.707031 C 169.894531 201.707031 168.445312 197.164062 168.773438 192 L 175.023438 192 C 175.023438 194.847656 175.148438 197.246094 178.585938 197.246094 C 180.691406 197.246094 181.726562 195.882812 181.726562 193.859375 C 181.726562 188.484375 169.148438 188.15625 169.148438 179.273438 C 169.148438 174.609375 171.378906 170.890625 178.992188 170.890625 C 185.078125 170.890625 188.101562 173.613281 187.691406 179.851562 L 181.605469 179.851562 C 181.605469 177.621094 181.230469 175.355469 178.703125 175.355469 C 176.675781 175.355469 175.480469 176.464844 175.480469 178.53125 C 175.480469 184.191406 188.0625 183.695312 188.0625 193.070312 C 188.0625 200.796875 182.390625 201.707031 177.632812 201.707031 Z M 191.414062 186.296875 C 191.414062 178.40625 191.414062 170.890625 201.71875 170.890625 C 208.09375 170.890625 210.65625 174.402344 210.410156 180.808594 L 204.28125 180.808594 C 204.28125 176.839844 203.582031 175.355469 201.71875 175.355469 C 198.199219 175.355469 197.746094 178.660156 197.746094 186.296875 C 197.746094 193.941406 198.199219 197.246094 201.71875 197.246094 C 204.617188 197.246094 204.496094 193.527344 204.570312 191.171875 L 210.738281 191.171875 C 210.738281 199.144531 207.554688 201.707031 201.71875 201.707031 C 191.414062 201.707031 191.414062 194.105469 191.414062 186.296875 Z M 224.726562 197.246094 C 221.207031 197.246094 220.753906 193.941406 220.753906 186.296875 C 220.753906 178.660156 221.207031 175.355469 224.726562 175.355469 C 228.246094 175.355469 228.699219 178.660156 228.699219 186.296875 C 228.699219 193.941406 228.246094 197.246094 224.726562 197.246094 Z M 224.726562 201.707031 C 235.03125 201.707031 235.03125 194.105469 235.03125 186.296875 C 235.03125 178.40625 235.03125 170.890625 224.726562 170.890625 C 214.425781 170.890625 214.425781 178.40625 214.425781 186.296875 C 214.425781 194.105469 214.425781 201.707031 224.726562 201.707031 Z M 224.726562 201.707031 " fill-opacity="1" fill-rule="nonzero"/><g clip-path="url(#d5babf2cd2)"><path fill="#00546c" d="M 93.734375 228.640625 C 93.734375 234.914062 97.667969 238.660156 104.25 238.660156 C 107.003906 238.660156 109.097656 238.003906 110.371094 237.457031 C 110.589844 235.652344 110.796875 234.328125 111.09375 233.089844 C 111.015625 232.980469 110.273438 232.875 110.273438 232.875 C 109.445312 235.710938 107.503906 237.300781 104.832031 237.300781 C 99.867188 237.300781 97.644531 232.871094 97.644531 228.476562 C 97.644531 223.5625 100.152344 220.503906 104.195312 220.503906 C 107.953125 220.503906 109.257812 222.359375 110.0625 225.132812 L 110.082031 225.210938 L 110.960938 225.09375 C 110.871094 223.621094 110.796875 222.175781 110.828125 220.570312 C 110.75 220.480469 108.285156 219.863281 108.285156 219.863281 C 107.117188 219.496094 106.015625 219.152344 104.117188 219.152344 C 98.953125 219.152344 93.734375 222.410156 93.734375 228.640625 Z M 117 220.441406 L 117.460938 220.527344 C 118.367188 220.527344 119.339844 220.644531 119.339844 221.953125 L 119.339844 235.855469 C 119.339844 237.164062 118.371094 237.277344 117.460938 237.277344 L 117 237.277344 L 117 238.167969 C 117.089844 238.257812 119.867188 238.214844 119.867188 238.214844 L 124.164062 238.152344 L 131.316406 238.257812 C 131.402344 238.179688 132.304688 233.964844 132.304688 233.964844 C 132.238281 233.855469 131.496094 233.667969 131.496094 233.667969 C 130.621094 236.628906 129.316406 236.90625 126.074219 236.90625 C 124.386719 236.90625 122.925781 236.90625 122.925781 235.273438 L 122.925781 229.089844 L 126.023438 229.179688 C 127.75 229.179688 127.84375 230.117188 127.996094 231.664062 L 128.003906 231.769531 L 128.113281 231.808594 L 128.914062 231.644531 C 128.984375 231.554688 128.902344 228.53125 128.910156 228.53125 L 128.984375 225.429688 L 128.097656 225.335938 C 127.835938 226.910156 127.484375 227.664062 126 227.664062 L 122.832031 227.664062 L 122.925781 220.804688 L 126.53125 220.902344 C 129.230469 220.902344 129.550781 222.214844 129.679688 223.917969 L 129.6875 224.035156 L 130.59375 223.792969 C 130.660156 223.695312 130.613281 219.644531 130.609375 219.644531 C 130.515625 219.550781 127.457031 219.597656 127.457031 219.597656 L 123.710938 219.65625 L 117.089844 219.550781 Z M 143.863281 220.703125 C 144.234375 220.675781 144.578125 220.59375 145.378906 220.59375 C 147.742188 220.59375 149.257812 222.109375 149.257812 224.472656 C 149.257812 227.605469 147.820312 228.613281 145.167969 228.613281 L 143.863281 228.613281 Z M 144.480469 219.601562 L 142.214844 219.65625 L 139.53125 219.59375 L 138.089844 219.550781 L 138 220.441406 L 138.570312 220.527344 C 139.480469 220.527344 140.363281 220.683594 140.363281 222.457031 L 140.363281 235.9375 C 140.363281 236.925781 139.398438 237.277344 138.570312 237.277344 L 138.089844 237.277344 L 138 238.167969 C 138.089844 238.257812 140.058594 238.207031 140.058594 238.207031 L 141.945312 238.152344 L 146.515625 238.261719 L 146.613281 237.367188 L 146.042969 237.277344 C 144.742188 237.277344 143.953125 237.136719 143.953125 235.25 L 143.953125 229.566406 L 145.613281 229.660156 C 146.921875 232.058594 148.800781 235.25 151.070312 238.222656 C 151.144531 238.261719 152.398438 238.207031 152.398438 238.207031 L 153.644531 238.152344 L 156.25 238.261719 L 156.339844 237.367188 C 154.96875 237.117188 154.472656 236.816406 153.746094 235.726562 L 149.257812 229.015625 C 151.640625 228.050781 152.914062 226.429688 152.914062 224.316406 C 152.914062 221.105469 150.8125 219.550781 146.492188 219.550781 Z M 175.710938 219.550781 L 161.992188 219.550781 C 161.226562 219.550781 160.675781 219.550781 160.484375 218.851562 L 159.757812 218.78125 C 159.667969 218.871094 159.507812 221.117188 159.507812 221.117188 L 159.296875 222.675781 L 159.191406 223.371094 L 160.078125 223.476562 L 160.15625 223.476562 L 160.179688 223.351562 C 160.570312 221.453125 160.652344 221.0625 162.546875 221.0625 L 166.910156 221.0625 L 166.816406 235.144531 C 166.816406 237.183594 166.128906 237.277344 164.699219 237.277344 L 164.199219 237.277344 L 164.105469 238.167969 C 164.199219 238.257812 165.984375 238.214844 165.984375 238.214844 L 168.691406 238.152344 L 173.023438 238.257812 L 173.117188 237.367188 L 172.515625 237.277344 C 171.320312 237.277344 170.402344 237.117188 170.402344 235.085938 L 170.402344 220.96875 L 174.671875 221.0625 C 176.417969 221.0625 176.503906 222.660156 176.546875 223.523438 L 176.554688 223.648438 L 177.46875 223.3125 C 177.53125 223.226562 177.585938 221.082031 177.585938 221.082031 L 177.875 218.9375 C 177.796875 218.832031 177.160156 218.726562 177.160156 218.726562 C 177.003906 219.496094 176.496094 219.550781 175.710938 219.550781 Z M 183.59375 220.441406 L 184.054688 220.527344 C 184.964844 220.527344 185.933594 220.644531 185.933594 221.953125 L 185.933594 235.855469 C 185.933594 237.164062 184.964844 237.277344 184.054688 237.277344 L 183.59375 237.277344 L 183.59375 238.167969 C 183.683594 238.257812 185.425781 238.207031 185.425781 238.207031 L 187.59375 238.152344 L 191.792969 238.257812 L 191.886719 237.367188 L 191.421875 237.277344 C 190.519531 237.277344 189.550781 237.164062 189.550781 235.855469 L 189.550781 221.953125 C 189.550781 220.644531 190.519531 220.527344 191.421875 220.527344 L 191.792969 220.527344 L 191.890625 219.640625 C 191.792969 219.550781 189.765625 219.601562 189.765625 219.601562 L 187.625 219.65625 L 183.683594 219.550781 Z M 198.828125 220.441406 L 199.292969 220.527344 C 200.199219 220.527344 201.164062 220.644531 201.164062 221.953125 L 201.164062 235.855469 C 201.164062 237.164062 200.199219 237.277344 199.292969 237.277344 L 198.921875 237.277344 L 198.828125 238.167969 C 198.921875 238.257812 200.699219 238.210938 200.699219 238.210938 L 202.988281 238.152344 L 207.558594 238.257812 L 207.648438 237.367188 L 207.214844 237.277344 C 205.726562 237.277344 204.753906 237.175781 204.753906 235.855469 L 204.753906 229.089844 L 207.957031 229.179688 C 209.367188 229.179688 209.996094 229.953125 209.996094 231.6875 L 210.882812 231.78125 C 210.976562 231.683594 210.867188 228.449219 210.867188 228.449219 L 210.976562 225.59375 L 210.882812 225.515625 L 210.082031 225.515625 C 209.996094 227.054688 209.511719 227.667969 208.382812 227.667969 L 204.753906 227.667969 L 204.753906 220.808594 L 208.914062 220.902344 C 210.863281 220.902344 211.339844 222.011719 211.507812 223.921875 L 211.519531 224.035156 L 212.421875 223.792969 C 212.488281 223.695312 212.4375 219.648438 212.4375 219.648438 C 212.34375 219.550781 209.289062 219.597656 209.289062 219.597656 L 205.535156 219.65625 L 198.917969 219.550781 Z M 219.191406 220.441406 L 219.65625 220.527344 C 220.5625 220.527344 221.527344 220.644531 221.527344 221.953125 L 221.527344 235.855469 C 221.527344 237.164062 220.5625 237.277344 219.65625 237.277344 L 219.191406 237.277344 L 219.191406 238.167969 C 219.285156 238.257812 221.023438 238.207031 221.023438 238.207031 L 223.1875 238.152344 L 227.390625 238.257812 L 227.480469 237.367188 L 227.019531 237.277344 C 226.113281 237.277344 225.144531 237.164062 225.144531 235.855469 L 225.144531 221.953125 C 225.144531 220.644531 226.113281 220.527344 227.019531 220.527344 L 227.390625 220.527344 L 227.480469 219.640625 C 227.390625 219.550781 225.363281 219.601562 225.363281 219.601562 L 223.21875 219.65625 L 219.285156 219.550781 Z M 233.890625 220.441406 L 234.355469 220.527344 C 235.261719 220.527344 236.230469 220.644531 236.230469 221.953125 L 236.230469 235.855469 C 236.230469 237.164062 235.261719 237.277344 234.355469 237.277344 L 233.890625 237.277344 L 233.890625 238.167969 C 233.984375 238.257812 236.761719 238.214844 236.761719 238.214844 L 241.050781 238.152344 L 248.203125 238.257812 C 248.300781 238.179688 249.199219 233.964844 249.199219 233.964844 C 249.128906 233.855469 248.386719 233.667969 248.386719 233.667969 C 247.515625 236.628906 246.214844 236.90625 242.972656 236.90625 C 241.277344 236.90625 239.816406 236.90625 239.816406 235.273438 L 239.816406 229.089844 L 242.914062 229.179688 C 244.644531 229.179688 244.738281 230.113281 244.894531 231.664062 L 244.902344 231.765625 L 245.011719 231.808594 L 245.804688 231.644531 C 245.878906 231.554688 245.800781 228.53125 245.800781 228.53125 L 245.878906 225.429688 L 244.988281 225.332031 C 244.726562 226.910156 244.378906 227.664062 242.890625 227.664062 L 239.722656 227.664062 L 239.816406 220.804688 L 243.421875 220.902344 C 246.121094 220.902344 246.441406 222.210938 246.570312 223.917969 L 246.582031 224.03125 L 247.488281 223.792969 C 247.558594 223.695312 247.5 219.644531 247.5 219.644531 C 247.414062 219.546875 244.351562 219.597656 244.351562 219.597656 L 240.605469 219.65625 L 233.984375 219.550781 Z M 261.039062 220.785156 L 262.429688 220.691406 C 267.699219 220.691406 270.152344 223.441406 270.152344 229.351562 C 270.152344 233.089844 268.039062 237.117188 263.386719 237.117188 C 261.535156 237.117188 260.714844 236.925781 260.714844 235.113281 L 260.714844 220.816406 C 260.820312 220.800781 261.039062 220.785156 261.039062 220.785156 Z M 261.6875 219.59375 L 259.132812 219.65625 L 256.261719 219.589844 L 254.882812 219.550781 L 254.785156 220.441406 L 255.25 220.527344 C 256.15625 220.527344 257.128906 220.644531 257.128906 221.953125 L 257.128906 235.855469 C 257.128906 237.164062 256.15625 237.277344 255.25 237.277344 L 254.882812 237.277344 L 254.785156 238.167969 L 254.785156 238.257812 L 256.128906 238.222656 L 259.265625 238.152344 L 264.101562 238.253906 C 265.390625 238.335938 266.644531 238.15625 267.859375 237.714844 C 269.074219 237.273438 270.152344 236.609375 271.089844 235.71875 C 272.035156 234.828125 272.765625 233.785156 273.285156 232.589844 C 273.800781 231.398438 274.058594 230.152344 274.0625 228.851562 C 274.0625 223.199219 269.882812 219.550781 263.414062 219.550781 Z M 142.90625 145.835938 C 142.90625 152.105469 146.835938 155.855469 153.421875 155.855469 C 156.171875 155.855469 158.273438 155.199219 159.546875 154.652344 C 159.765625 152.839844 159.964844 151.519531 160.265625 150.285156 C 160.1875 150.175781 159.445312 150.070312 159.445312 150.070312 C 158.621094 152.90625 156.675781 154.496094 154.007812 154.496094 C 149.039062 154.496094 146.816406 150.066406 146.816406 145.675781 C 146.816406 140.757812 149.328125 137.699219 153.371094 137.699219 C 157.125 137.699219 158.433594 139.554688 159.234375 142.328125 L 159.257812 142.40625 L 160.136719 142.289062 C 160.039062 140.816406 159.972656 139.371094 160 137.765625 C 159.925781 137.675781 157.457031 137.058594 157.457031 137.058594 C 156.289062 136.691406 155.191406 136.347656 153.289062 136.347656 C 148.128906 136.347656 142.90625 139.605469 142.90625 145.835938 Z M 163.164062 145.835938 C 163.164062 152.105469 167.09375 155.855469 173.679688 155.855469 C 176.433594 155.855469 178.53125 155.199219 179.804688 154.652344 C 180.015625 152.851562 180.222656 151.53125 180.523438 150.285156 C 180.445312 150.175781 179.699219 150.070312 179.699219 150.070312 C 178.878906 152.90625 176.933594 154.496094 174.265625 154.496094 C 169.292969 154.496094 167.074219 150.066406 167.074219 145.675781 C 167.074219 140.757812 169.582031 137.699219 173.628906 137.699219 C 177.382812 137.699219 178.691406 139.554688 179.492188 142.328125 L 179.515625 142.40625 L 180.394531 142.289062 C 180.296875 140.816406 180.230469 139.371094 180.257812 137.765625 C 180.183594 137.675781 177.710938 137.058594 177.710938 137.058594 C 176.546875 136.691406 175.441406 136.347656 173.546875 136.347656 C 168.386719 136.347656 163.164062 139.605469 163.164062 145.835938 Z M 198.175781 137.636719 L 198.855469 137.730469 C 199.523438 137.730469 201.078125 137.960938 201.078125 140.128906 L 201.078125 149.949219 C 200.863281 149.707031 189.355469 136.773438 189.355469 136.773438 C 189.28125 136.746094 188.105469 136.796875 188.105469 136.796875 L 186.917969 136.851562 L 183.859375 136.746094 L 183.765625 137.636719 L 184.207031 137.730469 C 185.347656 137.730469 186.53125 138.585938 186.53125 140.023438 L 186.53125 151.191406 C 186.53125 153.496094 185.847656 154.472656 184.234375 154.472656 L 183.859375 154.472656 L 183.765625 155.363281 C 183.859375 155.457031 185.671875 155.402344 185.671875 155.402344 L 187.476562 155.351562 L 190.902344 155.457031 L 191 154.5625 L 190.457031 154.472656 C 188.5625 154.472656 188.046875 153.828125 188.046875 151.460938 L 188.046875 140.769531 C 188.367188 141.121094 201.578125 155.820312 201.578125 155.820312 L 202.660156 155.855469 L 202.757812 155.855469 L 202.59375 153.082031 L 202.59375 141.003906 C 202.59375 137.976562 203.710938 137.726562 204.867188 137.726562 L 205.265625 137.726562 L 205.359375 136.835938 C 205.265625 136.746094 203.632812 136.796875 203.632812 136.796875 L 201.996094 136.851562 L 198.269531 136.746094 Z M 214.628906 136.792969 L 212.542969 136.851562 L 210.367188 136.792969 L 208.816406 136.746094 L 208.726562 137.636719 L 209.136719 137.730469 C 210.386719 137.730469 210.824219 138.03125 210.824219 139.726562 L 210.824219 152.417969 C 210.824219 154.472656 210.023438 154.472656 209.242188 154.472656 L 208.816406 154.472656 L 208.722656 155.363281 C 208.816406 155.457031 211.066406 155.402344 211.066406 155.402344 L 213.230469 155.347656 L 217.269531 155.457031 L 217.367188 154.5625 L 216.84375 154.472656 C 215.542969 154.472656 214.414062 154.472656 214.414062 152.363281 L 214.414062 137.792969 L 215.089844 137.886719 C 217.617188 137.886719 219.011719 139.351562 219.011719 142.011719 C 219.011719 144.839844 217.902344 146.457031 215.96875 146.457031 L 215.40625 146.457031 L 215.316406 147.347656 C 215.40625 147.441406 217.542969 147.386719 217.542969 147.386719 C 220.714844 147.066406 222.761719 144.917969 222.761719 141.902344 C 222.761719 138.429688 220.6875 136.746094 216.421875 136.746094 Z M 214.628906 136.792969 " fill-opacity="1" fill-rule="nonzero"/></g><g fill="#000000" fill-opacity="1"><g transform="translate(107.211246, 264.516897)"><g><path d="M 11.59375 -14.125 C 11.59375 -14 11.550781 -13.890625 11.46875 -13.796875 C 11.382812 -13.703125 11.269531 -13.65625 11.125 -13.65625 L 5.125 -13.65625 C 5 -13.65625 4.890625 -13.613281 4.796875 -13.53125 C 4.710938 -13.445312 4.671875 -13.34375 4.671875 -13.21875 C 4.671875 -12.75 4.664062 -12.222656 4.65625 -11.640625 C 4.644531 -11.054688 4.632812 -10.421875 4.625 -9.734375 C 4.625 -9.609375 4.671875 -9.5 4.765625 -9.40625 C 4.859375 -9.3125 4.960938 -9.265625 5.078125 -9.265625 L 9.9375 -9.265625 C 10.0625 -9.265625 10.164062 -9.21875 10.25 -9.125 C 10.34375 -9.039062 10.390625 -8.9375 10.390625 -8.8125 L 10.390625 -7.296875 C 10.390625 -7.171875 10.34375 -7.0625 10.25 -6.96875 C 10.164062 -6.875 10.0625 -6.828125 9.9375 -6.828125 L 5.078125 -6.828125 C 4.960938 -6.828125 4.859375 -6.78125 4.765625 -6.6875 C 4.671875 -6.601562 4.625 -6.5 4.625 -6.375 C 4.632812 -5.6875 4.644531 -5.050781 4.65625 -4.46875 C 4.664062 -3.882812 4.671875 -3.351562 4.671875 -2.875 C 4.671875 -2.75 4.710938 -2.644531 4.796875 -2.5625 C 4.890625 -2.476562 5 -2.4375 5.125 -2.4375 L 11.125 -2.4375 C 11.269531 -2.4375 11.382812 -2.390625 11.46875 -2.296875 C 11.550781 -2.203125 11.59375 -2.097656 11.59375 -1.984375 L 11.59375 -0.453125 C 11.59375 -0.335938 11.550781 -0.234375 11.46875 -0.140625 C 11.382812 -0.046875 11.269531 0 11.125 0 L 1.609375 0 C 1.472656 0 1.363281 -0.046875 1.28125 -0.140625 C 1.195312 -0.234375 1.15625 -0.335938 1.15625 -0.453125 C 1.164062 -0.960938 1.1875 -1.859375 1.21875 -3.140625 C 1.25 -4.421875 1.265625 -6.054688 1.265625 -8.046875 C 1.265625 -10.054688 1.25 -11.695312 1.21875 -12.96875 C 1.1875 -14.238281 1.164062 -15.128906 1.15625 -15.640625 C 1.15625 -15.765625 1.195312 -15.867188 1.28125 -15.953125 C 1.363281 -16.046875 1.472656 -16.09375 1.609375 -16.09375 L 11.125 -16.09375 C 11.269531 -16.09375 11.382812 -16.046875 11.46875 -15.953125 C 11.550781 -15.867188 11.59375 -15.765625 11.59375 -15.640625 Z M 11.59375 -14.125 "/></g></g></g><g fill="#000000" fill-opacity="1"><g transform="translate(119.971946, 264.516897)"><g><path d="M 12.484375 -8.046875 C 12.484375 -6.054688 12.492188 -4.421875 12.515625 -3.140625 C 12.546875 -1.859375 12.578125 -0.960938 12.609375 -0.453125 C 12.609375 -0.335938 12.5625 -0.234375 12.46875 -0.140625 C 12.375 -0.046875 12.265625 0 12.140625 0 L 7.3125 0 C 7.039062 0 6.890625 -0.128906 6.859375 -0.390625 C 6.796875 -0.867188 6.660156 -1.75 6.453125 -3.03125 C 6.242188 -4.320312 5.960938 -5.992188 5.609375 -8.046875 C 5.503906 -8.648438 5.398438 -9.210938 5.296875 -9.734375 C 5.203125 -10.265625 5.109375 -10.757812 5.015625 -11.21875 C 4.992188 -11.34375 4.925781 -11.394531 4.8125 -11.375 C 4.695312 -11.363281 4.640625 -11.304688 4.640625 -11.203125 C 4.640625 -10.742188 4.632812 -10.253906 4.625 -9.734375 C 4.625 -9.210938 4.625 -8.648438 4.625 -8.046875 C 4.625 -6.054688 4.640625 -4.421875 4.671875 -3.140625 C 4.703125 -1.859375 4.722656 -0.960938 4.734375 -0.453125 C 4.734375 -0.335938 4.691406 -0.234375 4.609375 -0.140625 C 4.523438 -0.046875 4.414062 0 4.28125 0 L 1.609375 0 C 1.472656 0 1.363281 -0.046875 1.28125 -0.140625 C 1.195312 -0.234375 1.15625 -0.335938 1.15625 -0.453125 C 1.164062 -0.960938 1.1875 -1.859375 1.21875 -3.140625 C 1.25 -4.421875 1.265625 -6.054688 1.265625 -8.046875 C 1.265625 -10.054688 1.25 -11.695312 1.21875 -12.96875 C 1.1875 -14.238281 1.164062 -15.128906 1.15625 -15.640625 C 1.15625 -15.765625 1.195312 -15.867188 1.28125 -15.953125 C 1.363281 -16.046875 1.472656 -16.09375 1.609375 -16.09375 L 6.4375 -16.09375 C 6.695312 -16.09375 6.851562 -15.960938 6.90625 -15.703125 C 6.957031 -15.242188 7.082031 -14.363281 7.28125 -13.0625 C 7.488281 -11.769531 7.773438 -10.097656 8.140625 -8.046875 C 8.242188 -7.460938 8.347656 -6.898438 8.453125 -6.359375 C 8.554688 -5.828125 8.644531 -5.332031 8.71875 -4.875 C 8.75 -4.75 8.820312 -4.691406 8.9375 -4.703125 C 9.050781 -4.722656 9.109375 -4.789062 9.109375 -4.90625 C 9.109375 -5.363281 9.109375 -5.851562 9.109375 -6.375 C 9.117188 -6.90625 9.125 -7.460938 9.125 -8.046875 C 9.125 -10.054688 9.109375 -11.695312 9.078125 -12.96875 C 9.046875 -14.238281 9.023438 -15.128906 9.015625 -15.640625 C 9.003906 -15.765625 9.039062 -15.867188 9.125 -15.953125 C 9.21875 -16.046875 9.328125 -16.09375 9.453125 -16.09375 L 12.140625 -16.09375 C 12.265625 -16.09375 12.375 -16.046875 12.46875 -15.953125 C 12.5625 -15.867188 12.609375 -15.765625 12.609375 -15.640625 C 12.578125 -15.128906 12.546875 -14.238281 12.515625 -12.96875 C 12.492188 -11.695312 12.484375 -10.054688 12.484375 -8.046875 Z M 12.484375 -8.046875 "/></g></g></g><g fill="#000000" fill-opacity="1"><g transform="translate(133.721311, 264.516897)"><g><path d="M 6.71875 -2.234375 C 7.25 -2.234375 7.664062 -2.34375 7.96875 -2.5625 C 8.28125 -2.78125 8.5 -3.054688 8.625 -3.390625 C 8.757812 -3.722656 8.84375 -4.066406 8.875 -4.421875 C 8.90625 -4.710938 9.0625 -4.859375 9.34375 -4.859375 L 11.890625 -4.859375 C 12.023438 -4.859375 12.132812 -4.804688 12.21875 -4.703125 C 12.300781 -4.597656 12.34375 -4.488281 12.34375 -4.375 C 12.289062 -3.476562 12.070312 -2.6875 11.6875 -2 C 11.300781 -1.3125 10.707031 -0.769531 9.90625 -0.375 C 9.113281 0.0078125 8.066406 0.203125 6.765625 0.203125 C 5.347656 0.203125 4.226562 -0.0390625 3.40625 -0.53125 C 2.59375 -1.019531 2.015625 -1.648438 1.671875 -2.421875 C 1.328125 -3.203125 1.15625 -4.015625 1.15625 -4.859375 C 1.15625 -5.179688 1.160156 -5.484375 1.171875 -5.765625 C 1.191406 -6.054688 1.210938 -6.378906 1.234375 -6.734375 C 1.253906 -7.085938 1.265625 -7.523438 1.265625 -8.046875 C 1.265625 -8.566406 1.253906 -9.003906 1.234375 -9.359375 C 1.210938 -9.710938 1.191406 -10.035156 1.171875 -10.328125 C 1.160156 -10.617188 1.15625 -10.925781 1.15625 -11.25 C 1.15625 -12.226562 1.332031 -13.097656 1.6875 -13.859375 C 2.050781 -14.617188 2.640625 -15.21875 3.453125 -15.65625 C 4.265625 -16.09375 5.367188 -16.3125 6.765625 -16.3125 C 8.066406 -16.3125 9.113281 -16.09375 9.90625 -15.65625 C 10.707031 -15.21875 11.300781 -14.648438 11.6875 -13.953125 C 12.070312 -13.265625 12.289062 -12.53125 12.34375 -11.75 C 12.34375 -11.613281 12.300781 -11.492188 12.21875 -11.390625 C 12.132812 -11.296875 12.023438 -11.25 11.890625 -11.25 L 9.171875 -11.25 C 8.898438 -11.25 8.75 -11.394531 8.71875 -11.6875 C 8.695312 -11.945312 8.632812 -12.25 8.53125 -12.59375 C 8.4375 -12.9375 8.253906 -13.234375 7.984375 -13.484375 C 7.722656 -13.742188 7.332031 -13.875 6.8125 -13.875 C 6.195312 -13.875 5.742188 -13.734375 5.453125 -13.453125 C 5.160156 -13.179688 4.972656 -12.84375 4.890625 -12.4375 C 4.816406 -12.03125 4.78125 -11.632812 4.78125 -11.25 L 4.78125 -4.859375 C 4.78125 -4.710938 4.789062 -4.5 4.8125 -4.21875 C 4.84375 -3.9375 4.914062 -3.640625 5.03125 -3.328125 C 5.144531 -3.023438 5.332031 -2.765625 5.59375 -2.546875 C 5.863281 -2.335938 6.238281 -2.234375 6.71875 -2.234375 Z M 6.71875 -2.234375 "/></g></g></g><g fill="#000000" fill-opacity="1"><g transform="translate(147.217763, 264.516897)"><g><path d="M 12.34375 -11.25 C 12.34375 -10.925781 12.335938 -10.617188 12.328125 -10.328125 C 12.316406 -10.035156 12.300781 -9.710938 12.28125 -9.359375 C 12.269531 -9.003906 12.265625 -8.566406 12.265625 -8.046875 C 12.265625 -7.523438 12.269531 -7.085938 12.28125 -6.734375 C 12.300781 -6.378906 12.316406 -6.054688 12.328125 -5.765625 C 12.335938 -5.484375 12.34375 -5.179688 12.34375 -4.859375 C 12.34375 -3.867188 12.164062 -2.992188 11.8125 -2.234375 C 11.46875 -1.484375 10.882812 -0.890625 10.0625 -0.453125 C 9.238281 -0.015625 8.140625 0.203125 6.765625 0.203125 C 5.347656 0.203125 4.226562 -0.0390625 3.40625 -0.53125 C 2.59375 -1.019531 2.015625 -1.648438 1.671875 -2.421875 C 1.328125 -3.203125 1.15625 -4.015625 1.15625 -4.859375 C 1.15625 -5.179688 1.160156 -5.484375 1.171875 -5.765625 C 1.191406 -6.054688 1.210938 -6.378906 1.234375 -6.734375 C 1.253906 -7.085938 1.265625 -7.523438 1.265625 -8.046875 C 1.265625 -8.566406 1.253906 -9.003906 1.234375 -9.359375 C 1.210938 -9.710938 1.191406 -10.035156 1.171875 -10.328125 C 1.160156 -10.617188 1.15625 -10.925781 1.15625 -11.25 C 1.15625 -12.226562 1.332031 -13.097656 1.6875 -13.859375 C 2.050781 -14.617188 2.640625 -15.21875 3.453125 -15.65625 C 4.265625 -16.09375 5.367188 -16.3125 6.765625 -16.3125 C 8.160156 -16.3125 9.265625 -16.0625 10.078125 -15.5625 C 10.898438 -15.070312 11.484375 -14.441406 11.828125 -13.671875 C 12.171875 -12.898438 12.34375 -12.09375 12.34375 -11.25 Z M 6.71875 -2.234375 C 7.3125 -2.234375 7.753906 -2.367188 8.046875 -2.640625 C 8.335938 -2.921875 8.523438 -3.265625 8.609375 -3.671875 C 8.691406 -4.078125 8.734375 -4.472656 8.734375 -4.859375 L 8.734375 -11.25 C 8.734375 -11.382812 8.71875 -11.59375 8.6875 -11.875 C 8.65625 -12.164062 8.582031 -12.460938 8.46875 -12.765625 C 8.351562 -13.066406 8.164062 -13.328125 7.90625 -13.546875 C 7.644531 -13.765625 7.28125 -13.875 6.8125 -13.875 C 6.195312 -13.875 5.742188 -13.734375 5.453125 -13.453125 C 5.160156 -13.179688 4.972656 -12.84375 4.890625 -12.4375 C 4.816406 -12.03125 4.78125 -11.632812 4.78125 -11.25 L 4.78125 -4.859375 C 4.78125 -4.710938 4.789062 -4.5 4.8125 -4.21875 C 4.84375 -3.9375 4.914062 -3.640625 5.03125 -3.328125 C 5.144531 -3.023438 5.332031 -2.765625 5.59375 -2.546875 C 5.863281 -2.335938 6.238281 -2.234375 6.71875 -2.234375 Z M 6.71875 -2.234375 "/></g></g></g><g fill="#000000" fill-opacity="1"><g transform="translate(160.737206, 264.516897)"><g><path d="M 11.828125 0 L 8.90625 0 C 8.78125 0 8.671875 -0.046875 8.578125 -0.140625 C 8.484375 -0.234375 8.4375 -0.335938 8.4375 -0.453125 L 8.4375 -4 C 8.4375 -4.351562 8.382812 -4.695312 8.28125 -5.03125 C 8.175781 -5.375 7.976562 -5.65625 7.6875 -5.875 C 7.40625 -6.09375 7.015625 -6.203125 6.515625 -6.203125 L 5.078125 -6.203125 C 4.960938 -6.203125 4.859375 -6.15625 4.765625 -6.0625 C 4.671875 -5.976562 4.628906 -5.875 4.640625 -5.75 C 4.640625 -4.394531 4.648438 -3.273438 4.671875 -2.390625 C 4.703125 -1.503906 4.722656 -0.859375 4.734375 -0.453125 C 4.734375 -0.335938 4.691406 -0.234375 4.609375 -0.140625 C 4.523438 -0.046875 4.414062 0 4.28125 0 L 1.609375 0 C 1.472656 0 1.363281 -0.046875 1.28125 -0.140625 C 1.195312 -0.234375 1.15625 -0.335938 1.15625 -0.453125 C 1.164062 -0.960938 1.1875 -1.859375 1.21875 -3.140625 C 1.25 -4.421875 1.265625 -6.054688 1.265625 -8.046875 C 1.265625 -10.054688 1.25 -11.695312 1.21875 -12.96875 C 1.1875 -14.238281 1.164062 -15.128906 1.15625 -15.640625 C 1.15625 -15.765625 1.195312 -15.867188 1.28125 -15.953125 C 1.363281 -16.046875 1.472656 -16.09375 1.609375 -16.09375 L 6.59375 -16.09375 C 7.351562 -16.09375 8.066406 -16.023438 8.734375 -15.890625 C 9.410156 -15.753906 10.007812 -15.507812 10.53125 -15.15625 C 11.050781 -14.800781 11.460938 -14.304688 11.765625 -13.671875 C 12.066406 -13.046875 12.21875 -12.242188 12.21875 -11.265625 C 12.21875 -10.359375 12.015625 -9.609375 11.609375 -9.015625 C 11.203125 -8.429688 10.675781 -7.972656 10.03125 -7.640625 C 9.96875 -7.609375 9.9375 -7.550781 9.9375 -7.46875 C 9.9375 -7.394531 9.972656 -7.335938 10.046875 -7.296875 C 10.628906 -7.015625 11.113281 -6.609375 11.5 -6.078125 C 11.882812 -5.554688 12.078125 -4.863281 12.078125 -4 C 12.078125 -3.175781 12.097656 -2.46875 12.140625 -1.875 C 12.191406 -1.28125 12.238281 -0.820312 12.28125 -0.5 C 12.300781 -0.363281 12.265625 -0.242188 12.171875 -0.140625 C 12.078125 -0.046875 11.960938 0 11.828125 0 Z M 6.640625 -13.65625 L 5.125 -13.65625 C 5 -13.65625 4.890625 -13.613281 4.796875 -13.53125 C 4.710938 -13.445312 4.671875 -13.34375 4.671875 -13.21875 C 4.671875 -12.664062 4.660156 -12.046875 4.640625 -11.359375 C 4.628906 -10.679688 4.625 -9.929688 4.625 -9.109375 C 4.625 -8.972656 4.671875 -8.859375 4.765625 -8.765625 C 4.859375 -8.679688 4.960938 -8.640625 5.078125 -8.640625 L 6.640625 -8.640625 C 7.148438 -8.640625 7.546875 -8.785156 7.828125 -9.078125 C 8.109375 -9.367188 8.300781 -9.71875 8.40625 -10.125 C 8.519531 -10.53125 8.578125 -10.910156 8.578125 -11.265625 C 8.578125 -11.878906 8.460938 -12.359375 8.234375 -12.703125 C 8.015625 -13.046875 7.753906 -13.289062 7.453125 -13.4375 C 7.160156 -13.582031 6.890625 -13.65625 6.640625 -13.65625 Z M 6.640625 -13.65625 "/></g></g></g><g fill="#000000" fill-opacity="1"><g transform="translate(174.164684, 264.516897)"><g/></g></g><g fill="#000000" fill-opacity="1"><g transform="translate(181.016376, 264.516897)"><g><path d="M 11.59375 -16.09375 C 11.757812 -16.09375 11.882812 -16.019531 11.96875 -15.875 C 12.050781 -15.726562 12.054688 -15.582031 11.984375 -15.4375 C 11.828125 -15.113281 11.609375 -14.664062 11.328125 -14.09375 C 11.054688 -13.53125 10.742188 -12.847656 10.390625 -12.046875 C 9.992188 -11.160156 9.671875 -10.414062 9.421875 -9.8125 C 9.179688 -9.207031 9 -8.757812 8.875 -8.46875 C 8.769531 -8.1875 8.769531 -7.910156 8.875 -7.640625 C 9 -7.328125 9.179688 -6.867188 9.421875 -6.265625 C 9.671875 -5.671875 9.992188 -4.929688 10.390625 -4.046875 C 10.742188 -3.253906 11.054688 -2.570312 11.328125 -2 C 11.609375 -1.4375 11.828125 -0.992188 11.984375 -0.671875 C 12.054688 -0.515625 12.050781 -0.363281 11.96875 -0.21875 C 11.882812 -0.0703125 11.757812 0 11.59375 0 L 9.03125 0 C 8.820312 0 8.679688 -0.109375 8.609375 -0.328125 C 8.523438 -0.597656 8.367188 -1.046875 8.140625 -1.671875 C 7.921875 -2.304688 7.628906 -3.097656 7.265625 -4.046875 C 7.160156 -4.328125 7.054688 -4.59375 6.953125 -4.84375 C 6.859375 -5.09375 6.765625 -5.332031 6.671875 -5.5625 C 6.648438 -5.625 6.601562 -5.65625 6.53125 -5.65625 C 6.46875 -5.65625 6.421875 -5.625 6.390625 -5.5625 C 6.296875 -5.332031 6.195312 -5.09375 6.09375 -4.84375 C 6 -4.59375 5.898438 -4.328125 5.796875 -4.046875 C 5.429688 -3.097656 5.140625 -2.304688 4.921875 -1.671875 C 4.703125 -1.046875 4.550781 -0.597656 4.46875 -0.328125 C 4.40625 -0.109375 4.257812 0 4.03125 0 L 1.5 0 C 1.320312 0 1.1875 -0.0703125 1.09375 -0.21875 C 1.007812 -0.363281 1.003906 -0.515625 1.078125 -0.671875 C 1.242188 -0.992188 1.460938 -1.4375 1.734375 -2 C 2.015625 -2.570312 2.332031 -3.253906 2.6875 -4.046875 C 3.082031 -4.929688 3.40625 -5.671875 3.65625 -6.265625 C 3.90625 -6.867188 4.082031 -7.328125 4.1875 -7.640625 C 4.289062 -7.910156 4.289062 -8.1875 4.1875 -8.46875 C 4.082031 -8.757812 3.90625 -9.207031 3.65625 -9.8125 C 3.40625 -10.414062 3.082031 -11.160156 2.6875 -12.046875 C 2.332031 -12.847656 2.015625 -13.53125 1.734375 -14.09375 C 1.460938 -14.664062 1.242188 -15.113281 1.078125 -15.4375 C 1.003906 -15.582031 1.007812 -15.726562 1.09375 -15.875 C 1.1875 -16.019531 1.320312 -16.09375 1.5 -16.09375 L 4.03125 -16.09375 C 4.257812 -16.09375 4.40625 -15.988281 4.46875 -15.78125 C 4.550781 -15.5 4.703125 -15.046875 4.921875 -14.421875 C 5.140625 -13.796875 5.429688 -13.003906 5.796875 -12.046875 C 5.898438 -11.773438 6 -11.507812 6.09375 -11.25 C 6.195312 -11 6.296875 -10.757812 6.390625 -10.53125 C 6.421875 -10.46875 6.46875 -10.4375 6.53125 -10.4375 C 6.601562 -10.4375 6.648438 -10.46875 6.671875 -10.53125 C 6.765625 -10.757812 6.859375 -11 6.953125 -11.25 C 7.054688 -11.507812 7.160156 -11.773438 7.265625 -12.046875 C 7.628906 -13.003906 7.921875 -13.796875 8.140625 -14.421875 C 8.367188 -15.046875 8.523438 -15.5 8.609375 -15.78125 C 8.679688 -15.988281 8.820312 -16.09375 9.03125 -16.09375 Z M 11.59375 -16.09375 "/></g></g></g><g fill="#000000" fill-opacity="1"><g transform="translate(194.098963, 264.516897)"><g/></g></g><g fill="#000000" fill-opacity="1"><g transform="translate(200.950655, 264.516897)"><g><path d="M 11.59375 -14.125 C 11.59375 -14 11.550781 -13.890625 11.46875 -13.796875 C 11.382812 -13.703125 11.269531 -13.65625 11.125 -13.65625 L 5.125 -13.65625 C 5 -13.65625 4.890625 -13.613281 4.796875 -13.53125 C 4.710938 -13.445312 4.671875 -13.34375 4.671875 -13.21875 C 4.671875 -12.75 4.664062 -12.222656 4.65625 -11.640625 C 4.644531 -11.054688 4.632812 -10.421875 4.625 -9.734375 C 4.625 -9.609375 4.671875 -9.5 4.765625 -9.40625 C 4.859375 -9.3125 4.960938 -9.265625 5.078125 -9.265625 L 9.9375 -9.265625 C 10.0625 -9.265625 10.164062 -9.21875 10.25 -9.125 C 10.34375 -9.039062 10.390625 -8.9375 10.390625 -8.8125 L 10.390625 -7.296875 C 10.390625 -7.171875 10.34375 -7.0625 10.25 -6.96875 C 10.164062 -6.875 10.0625 -6.828125 9.9375 -6.828125 L 5.078125 -6.828125 C 4.960938 -6.828125 4.859375 -6.78125 4.765625 -6.6875 C 4.671875 -6.601562 4.625 -6.5 4.625 -6.375 C 4.632812 -5.6875 4.644531 -5.050781 4.65625 -4.46875 C 4.664062 -3.882812 4.671875 -3.351562 4.671875 -2.875 C 4.671875 -2.75 4.710938 -2.644531 4.796875 -2.5625 C 4.890625 -2.476562 5 -2.4375 5.125 -2.4375 L 11.125 -2.4375 C 11.269531 -2.4375 11.382812 -2.390625 11.46875 -2.296875 C 11.550781 -2.203125 11.59375 -2.097656 11.59375 -1.984375 L 11.59375 -0.453125 C 11.59375 -0.335938 11.550781 -0.234375 11.46875 -0.140625 C 11.382812 -0.046875 11.269531 0 11.125 0 L 1.609375 0 C 1.472656 0 1.363281 -0.046875 1.28125 -0.140625 C 1.195312 -0.234375 1.15625 -0.335938 1.15625 -0.453125 C 1.164062 -0.960938 1.1875 -1.859375 1.21875 -3.140625 C 1.25 -4.421875 1.265625 -6.054688 1.265625 -8.046875 C 1.265625 -10.054688 1.25 -11.695312 1.21875 -12.96875 C 1.1875 -14.238281 1.164062 -15.128906 1.15625 -15.640625 C 1.15625 -15.765625 1.195312 -15.867188 1.28125 -15.953125 C 1.363281 -16.046875 1.472656 -16.09375 1.609375 -16.09375 L 11.125 -16.09375 C 11.269531 -16.09375 11.382812 -16.046875 11.46875 -15.953125 C 11.550781 -15.867188 11.59375 -15.765625 11.59375 -15.640625 Z M 11.59375 -14.125 "/></g></g></g><g fill="#000000" fill-opacity="1"><g transform="translate(213.711354, 264.516897)"><g><path d="M 12.484375 -8.046875 C 12.484375 -6.054688 12.492188 -4.421875 12.515625 -3.140625 C 12.546875 -1.859375 12.578125 -0.960938 12.609375 -0.453125 C 12.609375 -0.335938 12.5625 -0.234375 12.46875 -0.140625 C 12.375 -0.046875 12.265625 0 12.140625 0 L 7.3125 0 C 7.039062 0 6.890625 -0.128906 6.859375 -0.390625 C 6.796875 -0.867188 6.660156 -1.75 6.453125 -3.03125 C 6.242188 -4.320312 5.960938 -5.992188 5.609375 -8.046875 C 5.503906 -8.648438 5.398438 -9.210938 5.296875 -9.734375 C 5.203125 -10.265625 5.109375 -10.757812 5.015625 -11.21875 C 4.992188 -11.34375 4.925781 -11.394531 4.8125 -11.375 C 4.695312 -11.363281 4.640625 -11.304688 4.640625 -11.203125 C 4.640625 -10.742188 4.632812 -10.253906 4.625 -9.734375 C 4.625 -9.210938 4.625 -8.648438 4.625 -8.046875 C 4.625 -6.054688 4.640625 -4.421875 4.671875 -3.140625 C 4.703125 -1.859375 4.722656 -0.960938 4.734375 -0.453125 C 4.734375 -0.335938 4.691406 -0.234375 4.609375 -0.140625 C 4.523438 -0.046875 4.414062 0 4.28125 0 L 1.609375 0 C 1.472656 0 1.363281 -0.046875 1.28125 -0.140625 C 1.195312 -0.234375 1.15625 -0.335938 1.15625 -0.453125 C 1.164062 -0.960938 1.1875 -1.859375 1.21875 -3.140625 C 1.25 -4.421875 1.265625 -6.054688 1.265625 -8.046875 C 1.265625 -10.054688 1.25 -11.695312 1.21875 -12.96875 C 1.1875 -14.238281 1.164062 -15.128906 1.15625 -15.640625 C 1.15625 -15.765625 1.195312 -15.867188 1.28125 -15.953125 C 1.363281 -16.046875 1.472656 -16.09375 1.609375 -16.09375 L 6.4375 -16.09375 C 6.695312 -16.09375 6.851562 -15.960938 6.90625 -15.703125 C 6.957031 -15.242188 7.082031 -14.363281 7.28125 -13.0625 C 7.488281 -11.769531 7.773438 -10.097656 8.140625 -8.046875 C 8.242188 -7.460938 8.347656 -6.898438 8.453125 -6.359375 C 8.554688 -5.828125 8.644531 -5.332031 8.71875 -4.875 C 8.75 -4.75 8.820312 -4.691406 8.9375 -4.703125 C 9.050781 -4.722656 9.109375 -4.789062 9.109375 -4.90625 C 9.109375 -5.363281 9.109375 -5.851562 9.109375 -6.375 C 9.117188 -6.90625 9.125 -7.460938 9.125 -8.046875 C 9.125 -10.054688 9.109375 -11.695312 9.078125 -12.96875 C 9.046875 -14.238281 9.023438 -15.128906 9.015625 -15.640625 C 9.003906 -15.765625 9.039062 -15.867188 9.125 -15.953125 C 9.21875 -16.046875 9.328125 -16.09375 9.453125 -16.09375 L 12.140625 -16.09375 C 12.265625 -16.09375 12.375 -16.046875 12.46875 -15.953125 C 12.5625 -15.867188 12.609375 -15.765625 12.609375 -15.640625 C 12.578125 -15.128906 12.546875 -14.238281 12.515625 -12.96875 C 12.492188 -11.695312 12.484375 -10.054688 12.484375 -8.046875 Z M 12.484375 -8.046875 "/></g></g></g><g fill="#000000" fill-opacity="1"><g transform="translate(227.46072, 264.516897)"><g><path d="M 11.015625 0 C 10.753906 0 10.601562 -0.125 10.5625 -0.375 C 10.53125 -0.582031 10.472656 -0.882812 10.390625 -1.28125 C 10.316406 -1.6875 10.226562 -2.179688 10.125 -2.765625 C 10.070312 -3.003906 9.925781 -3.125 9.6875 -3.125 L 5.515625 -3.125 C 5.273438 -3.125 5.125 -3.003906 5.0625 -2.765625 C 4.957031 -2.179688 4.867188 -1.6875 4.796875 -1.28125 C 4.722656 -0.882812 4.664062 -0.582031 4.625 -0.375 C 4.59375 -0.125 4.445312 0 4.1875 0 L 1.5 0 C 1.34375 0 1.21875 -0.0546875 1.125 -0.171875 C 1.03125 -0.285156 1.007812 -0.410156 1.0625 -0.546875 C 1.175781 -1.085938 1.378906 -1.988281 1.671875 -3.25 C 1.960938 -4.519531 2.316406 -6.117188 2.734375 -8.046875 C 3.179688 -10.117188 3.523438 -11.800781 3.765625 -13.09375 C 4.015625 -14.394531 4.175781 -15.273438 4.25 -15.734375 C 4.300781 -15.972656 4.445312 -16.09375 4.6875 -16.09375 L 10.484375 -16.09375 C 10.742188 -16.09375 10.898438 -15.972656 10.953125 -15.734375 C 11.023438 -15.273438 11.179688 -14.394531 11.421875 -13.09375 C 11.671875 -11.800781 12.007812 -10.117188 12.4375 -8.046875 C 12.851562 -6.117188 13.207031 -4.519531 13.5 -3.25 C 13.789062 -1.988281 14.003906 -1.085938 14.140625 -0.546875 C 14.171875 -0.410156 14.140625 -0.285156 14.046875 -0.171875 C 13.960938 -0.0546875 13.847656 0 13.703125 0 Z M 6.1875 -5.5625 L 9.015625 -5.5625 C 9.148438 -5.5625 9.265625 -5.613281 9.359375 -5.71875 C 9.453125 -5.832031 9.484375 -5.957031 9.453125 -6.09375 C 9.390625 -6.40625 9.320312 -6.722656 9.25 -7.046875 C 9.1875 -7.378906 9.113281 -7.710938 9.03125 -8.046875 C 8.800781 -9.140625 8.59375 -10.125 8.40625 -11 C 8.21875 -11.882812 8.046875 -12.648438 7.890625 -13.296875 C 7.859375 -13.453125 7.757812 -13.53125 7.59375 -13.53125 C 7.4375 -13.53125 7.335938 -13.453125 7.296875 -13.296875 C 7.148438 -12.648438 6.976562 -11.882812 6.78125 -11 C 6.582031 -10.125 6.367188 -9.140625 6.140625 -8.046875 C 6.066406 -7.710938 5.992188 -7.378906 5.921875 -7.046875 C 5.847656 -6.722656 5.785156 -6.40625 5.734375 -6.09375 C 5.703125 -5.957031 5.726562 -5.832031 5.8125 -5.71875 C 5.90625 -5.613281 6.03125 -5.5625 6.1875 -5.5625 Z M 6.1875 -5.5625 "/></g></g></g><g fill="#000000" fill-opacity="1"><g transform="translate(242.658599, 264.516897)"><g><path d="M 11.828125 0 L 8.90625 0 C 8.78125 0 8.671875 -0.046875 8.578125 -0.140625 C 8.484375 -0.234375 8.4375 -0.335938 8.4375 -0.453125 L 8.4375 -4 C 8.4375 -4.351562 8.382812 -4.695312 8.28125 -5.03125 C 8.175781 -5.375 7.976562 -5.65625 7.6875 -5.875 C 7.40625 -6.09375 7.015625 -6.203125 6.515625 -6.203125 L 5.078125 -6.203125 C 4.960938 -6.203125 4.859375 -6.15625 4.765625 -6.0625 C 4.671875 -5.976562 4.628906 -5.875 4.640625 -5.75 C 4.640625 -4.394531 4.648438 -3.273438 4.671875 -2.390625 C 4.703125 -1.503906 4.722656 -0.859375 4.734375 -0.453125 C 4.734375 -0.335938 4.691406 -0.234375 4.609375 -0.140625 C 4.523438 -0.046875 4.414062 0 4.28125 0 L 1.609375 0 C 1.472656 0 1.363281 -0.046875 1.28125 -0.140625 C 1.195312 -0.234375 1.15625 -0.335938 1.15625 -0.453125 C 1.164062 -0.960938 1.1875 -1.859375 1.21875 -3.140625 C 1.25 -4.421875 1.265625 -6.054688 1.265625 -8.046875 C 1.265625 -10.054688 1.25 -11.695312 1.21875 -12.96875 C 1.1875 -14.238281 1.164062 -15.128906 1.15625 -15.640625 C 1.15625 -15.765625 1.195312 -15.867188 1.28125 -15.953125 C 1.363281 -16.046875 1.472656 -16.09375 1.609375 -16.09375 L 6.59375 -16.09375 C 7.351562 -16.09375 8.066406 -16.023438 8.734375 -15.890625 C 9.410156 -15.753906 10.007812 -15.507812 10.53125 -15.15625 C 11.050781 -14.800781 11.460938 -14.304688 11.765625 -13.671875 C 12.066406 -13.046875 12.21875 -12.242188 12.21875 -11.265625 C 12.21875 -10.359375 12.015625 -9.609375 11.609375 -9.015625 C 11.203125 -8.429688 10.675781 -7.972656 10.03125 -7.640625 C 9.96875 -7.609375 9.9375 -7.550781 9.9375 -7.46875 C 9.9375 -7.394531 9.972656 -7.335938 10.046875 -7.296875 C 10.628906 -7.015625 11.113281 -6.609375 11.5 -6.078125 C 11.882812 -5.554688 12.078125 -4.863281 12.078125 -4 C 12.078125 -3.175781 12.097656 -2.46875 12.140625 -1.875 C 12.191406 -1.28125 12.238281 -0.820312 12.28125 -0.5 C 12.300781 -0.363281 12.265625 -0.242188 12.171875 -0.140625 C 12.078125 -0.046875 11.960938 0 11.828125 0 Z M 6.640625 -13.65625 L 5.125 -13.65625 C 5 -13.65625 4.890625 -13.613281 4.796875 -13.53125 C 4.710938 -13.445312 4.671875 -13.34375 4.671875 -13.21875 C 4.671875 -12.664062 4.660156 -12.046875 4.640625 -11.359375 C 4.628906 -10.679688 4.625 -9.929688 4.625 -9.109375 C 4.625 -8.972656 4.671875 -8.859375 4.765625 -8.765625 C 4.859375 -8.679688 4.960938 -8.640625 5.078125 -8.640625 L 6.640625 -8.640625 C 7.148438 -8.640625 7.546875 -8.785156 7.828125 -9.078125 C 8.109375 -9.367188 8.300781 -9.71875 8.40625 -10.125 C 8.519531 -10.53125 8.578125 -10.910156 8.578125 -11.265625 C 8.578125 -11.878906 8.460938 -12.359375 8.234375 -12.703125 C 8.015625 -13.046875 7.753906 -13.289062 7.453125 -13.4375 C 7.160156 -13.582031 6.890625 -13.65625 6.640625 -13.65625 Z M 6.640625 -13.65625 "/></g></g></g><g fill="#000000" fill-opacity="1"><g transform="translate(256.086077, 264.516897)"><g><path d="M 4.78125 -11.65625 C 4.78125 -11.1875 4.960938 -10.804688 5.328125 -10.515625 C 5.703125 -10.234375 6.179688 -9.988281 6.765625 -9.78125 C 7.359375 -9.570312 7.984375 -9.351562 8.640625 -9.125 C 9.304688 -8.894531 9.929688 -8.597656 10.515625 -8.234375 C 11.109375 -7.878906 11.585938 -7.398438 11.953125 -6.796875 C 12.328125 -6.191406 12.515625 -5.40625 12.515625 -4.4375 C 12.515625 -3.457031 12.335938 -2.617188 11.984375 -1.921875 C 11.628906 -1.222656 11.039062 -0.6875 10.21875 -0.3125 C 9.40625 0.0507812 8.304688 0.234375 6.921875 0.234375 C 5.597656 0.234375 4.523438 0.0195312 3.703125 -0.40625 C 2.878906 -0.84375 2.257812 -1.410156 1.84375 -2.109375 C 1.4375 -2.804688 1.207031 -3.546875 1.15625 -4.328125 C 1.132812 -4.453125 1.171875 -4.5625 1.265625 -4.65625 C 1.359375 -4.757812 1.472656 -4.8125 1.609375 -4.8125 L 4.328125 -4.8125 C 4.597656 -4.8125 4.742188 -4.671875 4.765625 -4.390625 C 4.796875 -4.117188 4.875 -3.8125 5 -3.46875 C 5.132812 -3.132812 5.347656 -2.835938 5.640625 -2.578125 C 5.941406 -2.328125 6.351562 -2.203125 6.875 -2.203125 C 7.488281 -2.203125 7.9375 -2.304688 8.21875 -2.515625 C 8.5 -2.722656 8.679688 -3 8.765625 -3.34375 C 8.859375 -3.6875 8.90625 -4.050781 8.90625 -4.4375 C 8.90625 -4.925781 8.71875 -5.316406 8.34375 -5.609375 C 7.96875 -5.898438 7.484375 -6.148438 6.890625 -6.359375 C 6.296875 -6.566406 5.671875 -6.785156 5.015625 -7.015625 C 4.359375 -7.242188 3.738281 -7.535156 3.15625 -7.890625 C 2.570312 -8.253906 2.09375 -8.734375 1.71875 -9.328125 C 1.34375 -9.929688 1.15625 -10.707031 1.15625 -11.65625 C 1.15625 -12.644531 1.332031 -13.484375 1.6875 -14.171875 C 2.050781 -14.867188 2.640625 -15.398438 3.453125 -15.765625 C 4.265625 -16.140625 5.367188 -16.328125 6.765625 -16.328125 C 8.066406 -16.328125 9.113281 -16.113281 9.90625 -15.6875 C 10.707031 -15.257812 11.300781 -14.695312 11.6875 -14 C 12.070312 -13.300781 12.289062 -12.5625 12.34375 -11.78125 C 12.34375 -11.65625 12.300781 -11.539062 12.21875 -11.4375 C 12.132812 -11.34375 12.023438 -11.296875 11.890625 -11.296875 L 9.171875 -11.296875 C 8.898438 -11.296875 8.75 -11.429688 8.71875 -11.703125 C 8.695312 -11.984375 8.632812 -12.289062 8.53125 -12.625 C 8.4375 -12.96875 8.253906 -13.265625 7.984375 -13.515625 C 7.722656 -13.765625 7.332031 -13.890625 6.8125 -13.890625 C 6.195312 -13.890625 5.742188 -13.785156 5.453125 -13.578125 C 5.160156 -13.367188 4.972656 -13.09375 4.890625 -12.75 C 4.816406 -12.40625 4.78125 -12.039062 4.78125 -11.65625 Z M 4.78125 -11.65625 "/></g></g></g><g fill="#000000" fill-opacity="1"><g transform="translate(269.766469, 264.516897)"><g><path d="M 4.734375 -0.453125 C 4.734375 -0.335938 4.691406 -0.234375 4.609375 -0.140625 C 4.523438 -0.046875 4.414062 0 4.28125 0 L 1.609375 0 C 1.472656 0 1.363281 -0.046875 1.28125 -0.140625 C 1.195312 -0.234375 1.15625 -0.335938 1.15625 -0.453125 C 1.164062 -0.960938 1.1875 -1.859375 1.21875 -3.140625 C 1.25 -4.421875 1.265625 -6.054688 1.265625 -8.046875 C 1.265625 -10.054688 1.25 -11.695312 1.21875 -12.96875 C 1.1875 -14.238281 1.164062 -15.128906 1.15625 -15.640625 C 1.15625 -15.765625 1.195312 -15.867188 1.28125 -15.953125 C 1.363281 -16.046875 1.472656 -16.09375 1.609375 -16.09375 L 4.28125 -16.09375 C 4.414062 -16.09375 4.523438 -16.046875 4.609375 -15.953125 C 4.691406 -15.867188 4.734375 -15.765625 4.734375 -15.640625 C 4.722656 -15.128906 4.703125 -14.238281 4.671875 -12.96875 C 4.640625 -11.695312 4.625 -10.054688 4.625 -8.046875 C 4.625 -6.054688 4.640625 -4.421875 4.671875 -3.140625 C 4.703125 -1.859375 4.722656 -0.960938 4.734375 -0.453125 Z M 4.734375 -0.453125 "/></g></g></g></svg>