<svg xmlns="http://www.w3.org/2000/svg" xmlns:xlink="http://www.w3.org/1999/xlink" width="500" zoomAndPan="magnify" viewBox="0 0 375 374.999991" height="500" preserveAspectRatio="xMidYMid meet" version="1.0"><defs><g/><clipPath id="28542414ad"><path d="M 103 76.773438 L 289.484375 76.773438 L 289.484375 211 L 103 211 Z M 103 76.773438 " clip-rule="nonzero"/></clipPath><clipPath id="bc5a6c6a25"><path d="M 93.734375 136 L 275 136 L 275 238.773438 L 93.734375 238.773438 Z M 93.734375 136 " clip-rule="nonzero"/></clipPath></defs><rect x="-37.5" width="450" fill="#ffffff" y="-37.499999" height="449.999989" fill-opacity="1"/><rect x="-37.5" width="450" fill="#ffffff" y="-37.499999" height="449.999989" fill-opacity="1"/><g clip-path="url(#28542414ad)"><path fill="#00546c" d="M 215.726562 129.96875 L 183.859375 76.882812 L 151.988281 129.96875 Z M 235.089844 162.222656 L 132.621094 162.222656 L 103.683594 210.417969 L 264.019531 210.417969 Z M 289.484375 209.792969 L 287.214844 209.792969 L 287.214844 201.914062 L 287.167969 201.914062 L 285.0625 209.792969 L 282.84375 209.792969 L 280.835938 201.914062 L 280.789062 201.914062 L 280.789062 209.792969 L 278.519531 209.792969 L 278.519531 199.578125 L 282.273438 199.578125 L 284 206.535156 L 284.050781 206.535156 L 285.863281 199.578125 L 289.484375 199.578125 Z M 276.125 199.578125 L 276.125 201.277344 L 273.5 201.277344 L 273.5 209.789062 L 271.230469 209.789062 L 271.230469 201.277344 L 268.636719 201.277344 L 268.636719 199.578125 Z M 276.125 199.578125 " fill-opacity="1" fill-rule="nonzero"/></g><path fill="#ffffff" d="M 133.472656 186.296875 C 133.472656 178.40625 133.472656 170.890625 143.777344 170.890625 C 150.152344 170.890625 152.71875 174.402344 152.46875 180.808594 L 146.34375 180.808594 C 146.34375 176.839844 145.640625 175.355469 143.777344 175.355469 C 140.265625 175.355469 139.804688 178.660156 139.804688 186.296875 C 139.804688 193.941406 140.265625 197.246094 143.777344 197.246094 C 146.675781 197.246094 146.550781 193.527344 146.632812 191.171875 L 152.800781 191.171875 C 152.800781 199.144531 149.617188 201.707031 143.777344 201.707031 C 133.472656 201.707031 133.472656 194.105469 133.472656 186.296875 Z M 158.011719 201.210938 L 158.011719 171.386719 L 164.265625 171.386719 L 164.265625 201.210938 Z M 177.632812 201.707031 C 169.894531 201.707031 168.445312 197.164062 168.773438 192 L 175.023438 192 C 175.023438 194.847656 175.148438 197.246094 178.585938 197.246094 C 180.691406 197.246094 181.726562 195.882812 181.726562 193.859375 C 181.726562 188.484375 169.148438 188.15625 169.148438 179.273438 C 169.148438 174.609375 171.378906 170.890625 178.992188 170.890625 C 185.078125 170.890625 188.101562 173.613281 187.691406 179.851562 L 181.605469 179.851562 C 181.605469 177.621094 181.230469 175.351562 178.703125 175.351562 C 176.675781 175.351562 175.480469 176.464844 175.480469 178.53125 C 175.480469 184.191406 188.0625 183.695312 188.0625 193.070312 C 188.0625 200.796875 182.390625 201.707031 177.632812 201.707031 Z M 191.414062 186.296875 C 191.414062 178.40625 191.414062 170.890625 201.71875 170.890625 C 208.09375 170.890625 210.65625 174.402344 210.410156 180.808594 L 204.28125 180.808594 C 204.28125 176.839844 203.582031 175.355469 201.71875 175.355469 C 198.199219 175.355469 197.746094 178.660156 197.746094 186.296875 C 197.746094 193.941406 198.199219 197.246094 201.71875 197.246094 C 204.617188 197.246094 204.496094 193.527344 204.570312 191.171875 L 210.738281 191.171875 C 210.738281 199.144531 207.554688 201.707031 201.71875 201.707031 C 191.414062 201.707031 191.414062 194.105469 191.414062 186.296875 Z M 224.726562 197.246094 C 221.207031 197.246094 220.753906 193.941406 220.753906 186.296875 C 220.753906 178.660156 221.207031 175.355469 224.726562 175.355469 C 228.246094 175.355469 228.699219 178.660156 228.699219 186.296875 C 228.699219 193.941406 228.246094 197.246094 224.726562 197.246094 Z M 224.726562 201.707031 C 235.03125 201.707031 235.03125 194.105469 235.03125 186.296875 C 235.03125 178.40625 235.03125 170.890625 224.726562 170.890625 C 214.425781 170.890625 214.425781 178.40625 214.425781 186.296875 C 214.425781 194.105469 214.425781 201.707031 224.726562 201.707031 Z M 224.726562 201.707031 " fill-opacity="1" fill-rule="nonzero"/><g clip-path="url(#bc5a6c6a25)"><path fill="#00546c" d="M 93.734375 228.640625 C 93.734375 234.914062 97.667969 238.660156 104.25 238.660156 C 107.003906 238.660156 109.097656 238.003906 110.371094 237.457031 C 110.589844 235.652344 110.796875 234.328125 111.09375 233.089844 C 111.015625 232.980469 110.273438 232.875 110.273438 232.875 C 109.445312 235.710938 107.503906 237.300781 104.832031 237.300781 C 99.867188 237.300781 97.644531 232.871094 97.644531 228.476562 C 97.644531 223.5625 100.152344 220.503906 104.195312 220.503906 C 107.953125 220.503906 109.257812 222.359375 110.0625 225.132812 L 110.082031 225.210938 L 110.960938 225.09375 C 110.871094 223.621094 110.796875 222.175781 110.828125 220.570312 C 110.75 220.480469 108.285156 219.863281 108.285156 219.863281 C 107.117188 219.496094 106.015625 219.152344 104.117188 219.152344 C 98.953125 219.152344 93.734375 222.410156 93.734375 228.640625 Z M 117 220.441406 L 117.460938 220.527344 C 118.367188 220.527344 119.339844 220.644531 119.339844 221.953125 L 119.339844 235.855469 C 119.339844 237.164062 118.371094 237.277344 117.460938 237.277344 L 117 237.277344 L 117 238.167969 C 117.089844 238.257812 119.867188 238.214844 119.867188 238.214844 L 124.164062 238.152344 L 131.316406 238.257812 C 131.402344 238.179688 132.304688 233.964844 132.304688 233.964844 C 132.238281 233.855469 131.496094 233.667969 131.496094 233.667969 C 130.621094 236.628906 129.316406 236.90625 126.074219 236.90625 C 124.386719 236.90625 122.925781 236.90625 122.925781 235.273438 L 122.925781 229.089844 L 126.023438 229.179688 C 127.75 229.179688 127.84375 230.117188 127.996094 231.664062 L 128.003906 231.769531 L 128.113281 231.808594 L 128.914062 231.644531 C 128.984375 231.554688 128.902344 228.53125 128.910156 228.53125 L 128.984375 225.429688 L 128.097656 225.335938 C 127.835938 226.910156 127.484375 227.664062 126 227.664062 L 122.832031 227.664062 L 122.925781 220.804688 L 126.53125 220.902344 C 129.230469 220.902344 129.550781 222.214844 129.679688 223.917969 L 129.6875 224.035156 L 130.59375 223.792969 C 130.660156 223.695312 130.613281 219.644531 130.609375 219.644531 C 130.515625 219.550781 127.457031 219.597656 127.457031 219.597656 L 123.710938 219.65625 L 117.089844 219.550781 Z M 143.863281 220.703125 C 144.234375 220.675781 144.578125 220.59375 145.378906 220.59375 C 147.742188 220.59375 149.257812 222.109375 149.257812 224.472656 C 149.257812 227.605469 147.820312 228.609375 145.167969 228.609375 L 143.863281 228.609375 Z M 144.480469 219.601562 L 142.214844 219.65625 L 139.53125 219.59375 L 138.089844 219.550781 L 138 220.441406 L 138.570312 220.527344 C 139.480469 220.527344 140.363281 220.683594 140.363281 222.457031 L 140.363281 235.9375 C 140.363281 236.925781 139.398438 237.277344 138.570312 237.277344 L 138.089844 237.277344 L 138 238.167969 C 138.089844 238.257812 140.058594 238.207031 140.058594 238.207031 L 141.945312 238.152344 L 146.515625 238.257812 L 146.613281 237.367188 L 146.042969 237.277344 C 144.742188 237.277344 143.953125 237.136719 143.953125 235.25 L 143.953125 229.566406 L 145.613281 229.660156 C 146.921875 232.058594 148.800781 235.25 151.070312 238.222656 C 151.144531 238.261719 152.398438 238.207031 152.398438 238.207031 L 153.644531 238.152344 L 156.25 238.257812 L 156.339844 237.367188 C 154.96875 237.117188 154.472656 236.816406 153.746094 235.726562 L 149.257812 229.015625 C 151.640625 228.050781 152.914062 226.429688 152.914062 224.316406 C 152.914062 221.105469 150.8125 219.550781 146.492188 219.550781 Z M 175.710938 219.550781 L 161.992188 219.550781 C 161.226562 219.550781 160.675781 219.550781 160.484375 218.851562 L 159.757812 218.78125 C 159.667969 218.871094 159.507812 221.117188 159.507812 221.117188 L 159.296875 222.675781 L 159.191406 223.371094 L 160.078125 223.476562 L 160.15625 223.476562 L 160.179688 223.351562 C 160.570312 221.453125 160.652344 221.0625 162.546875 221.0625 L 166.910156 221.0625 L 166.816406 235.144531 C 166.816406 237.183594 166.128906 237.277344 164.699219 237.277344 L 164.199219 237.277344 L 164.105469 238.167969 C 164.199219 238.257812 165.984375 238.214844 165.984375 238.214844 L 168.691406 238.152344 L 173.023438 238.257812 L 173.117188 237.367188 L 172.515625 237.277344 C 171.320312 237.277344 170.402344 237.117188 170.402344 235.085938 L 170.402344 220.96875 L 174.671875 221.0625 C 176.417969 221.0625 176.503906 222.660156 176.546875 223.523438 L 176.554688 223.648438 L 177.46875 223.3125 C 177.53125 223.226562 177.585938 221.082031 177.585938 221.082031 L 177.875 218.9375 C 177.796875 218.832031 177.160156 218.726562 177.160156 218.726562 C 177.003906 219.496094 176.496094 219.550781 175.710938 219.550781 Z M 183.59375 220.441406 L 184.054688 220.527344 C 184.964844 220.527344 185.933594 220.644531 185.933594 221.953125 L 185.933594 235.855469 C 185.933594 237.164062 184.964844 237.277344 184.054688 237.277344 L 183.59375 237.277344 L 183.59375 238.167969 C 183.683594 238.257812 185.425781 238.207031 185.425781 238.207031 L 187.59375 238.152344 L 191.792969 238.257812 L 191.886719 237.367188 L 191.421875 237.277344 C 190.519531 237.277344 189.550781 237.164062 189.550781 235.855469 L 189.550781 221.953125 C 189.550781 220.644531 190.519531 220.527344 191.421875 220.527344 L 191.792969 220.527344 L 191.890625 219.640625 C 191.792969 219.550781 189.765625 219.601562 189.765625 219.601562 L 187.625 219.65625 L 183.683594 219.550781 Z M 198.828125 220.441406 L 199.292969 220.527344 C 200.199219 220.527344 201.164062 220.644531 201.164062 221.953125 L 201.164062 235.855469 C 201.164062 237.164062 200.199219 237.277344 199.292969 237.277344 L 198.921875 237.277344 L 198.828125 238.167969 C 198.921875 238.257812 200.699219 238.210938 200.699219 238.210938 L 202.988281 238.152344 L 207.558594 238.257812 L 207.648438 237.367188 L 207.214844 237.277344 C 205.726562 237.277344 204.753906 237.175781 204.753906 235.855469 L 204.753906 229.089844 L 207.957031 229.179688 C 209.367188 229.179688 209.996094 229.953125 209.996094 231.6875 L 210.882812 231.78125 C 210.976562 231.683594 210.867188 228.449219 210.867188 228.449219 L 210.976562 225.59375 L 210.882812 225.515625 L 210.082031 225.515625 C 209.996094 227.054688 209.511719 227.667969 208.382812 227.667969 L 204.753906 227.667969 L 204.753906 220.808594 L 208.914062 220.902344 C 210.863281 220.902344 211.339844 222.011719 211.507812 223.921875 L 211.519531 224.035156 L 212.421875 223.792969 C 212.488281 223.695312 212.4375 219.644531 212.4375 219.644531 C 212.34375 219.550781 209.289062 219.597656 209.289062 219.597656 L 205.535156 219.65625 L 198.917969 219.550781 Z M 219.191406 220.441406 L 219.65625 220.527344 C 220.5625 220.527344 221.527344 220.644531 221.527344 221.953125 L 221.527344 235.855469 C 221.527344 237.164062 220.5625 237.277344 219.65625 237.277344 L 219.191406 237.277344 L 219.191406 238.167969 C 219.285156 238.257812 221.023438 238.207031 221.023438 238.207031 L 223.1875 238.152344 L 227.390625 238.257812 L 227.480469 237.367188 L 227.019531 237.277344 C 226.113281 237.277344 225.144531 237.164062 225.144531 235.855469 L 225.144531 221.953125 C 225.144531 220.644531 226.113281 220.527344 227.019531 220.527344 L 227.390625 220.527344 L 227.480469 219.640625 C 227.390625 219.550781 225.363281 219.601562 225.363281 219.601562 L 223.21875 219.65625 L 219.285156 219.550781 Z M 233.890625 220.441406 L 234.355469 220.527344 C 235.261719 220.527344 236.230469 220.644531 236.230469 221.953125 L 236.230469 235.855469 C 236.230469 237.164062 235.261719 237.277344 234.355469 237.277344 L 233.890625 237.277344 L 233.890625 238.167969 C 233.984375 238.257812 236.761719 238.214844 236.761719 238.214844 L 241.050781 238.152344 L 248.203125 238.257812 C 248.300781 238.179688 249.199219 233.964844 249.199219 233.964844 C 249.128906 233.855469 248.386719 233.667969 248.386719 233.667969 C 247.515625 236.628906 246.214844 236.90625 242.972656 236.90625 C 241.277344 236.90625 239.816406 236.90625 239.816406 235.273438 L 239.816406 229.089844 L 242.914062 229.179688 C 244.644531 229.179688 244.738281 230.113281 244.894531 231.664062 L 244.902344 231.765625 L 245.011719 231.808594 L 245.804688 231.644531 C 245.878906 231.554688 245.800781 228.53125 245.800781 228.53125 L 245.878906 225.429688 L 244.988281 225.332031 C 244.726562 226.910156 244.378906 227.664062 242.890625 227.664062 L 239.722656 227.664062 L 239.816406 220.804688 L 243.421875 220.902344 C 246.121094 220.902344 246.441406 222.210938 246.570312 223.917969 L 246.582031 224.03125 L 247.488281 223.792969 C 247.558594 223.695312 247.5 219.644531 247.5 219.644531 C 247.414062 219.546875 244.351562 219.597656 244.351562 219.597656 L 240.605469 219.65625 L 233.984375 219.550781 Z M 261.039062 220.785156 L 262.429688 220.691406 C 267.699219 220.691406 270.152344 223.441406 270.152344 229.351562 C 270.152344 233.089844 268.039062 237.117188 263.386719 237.117188 C 261.535156 237.117188 260.714844 236.925781 260.714844 235.113281 L 260.714844 220.816406 C 260.820312 220.800781 261.039062 220.785156 261.039062 220.785156 Z M 261.6875 219.59375 L 259.132812 219.65625 L 256.261719 219.589844 L 254.882812 219.550781 L 254.785156 220.441406 L 255.25 220.527344 C 256.15625 220.527344 257.128906 220.644531 257.128906 221.953125 L 257.128906 235.855469 C 257.128906 237.164062 256.15625 237.277344 255.25 237.277344 L 254.882812 237.277344 L 254.785156 238.167969 L 254.785156 238.257812 L 256.128906 238.222656 L 259.265625 238.152344 L 264.101562 238.253906 C 265.390625 238.335938 266.644531 238.15625 267.859375 237.714844 C 269.074219 237.273438 270.152344 236.609375 271.089844 235.71875 C 272.035156 234.828125 272.765625 233.785156 273.285156 232.589844 C 273.800781 231.398438 274.058594 230.152344 274.0625 228.851562 C 274.0625 223.199219 269.882812 219.550781 263.414062 219.550781 Z M 142.90625 145.835938 C 142.90625 152.105469 146.835938 155.855469 153.421875 155.855469 C 156.171875 155.855469 158.273438 155.199219 159.546875 154.652344 C 159.765625 152.839844 159.964844 151.519531 160.265625 150.285156 C 160.1875 150.175781 159.445312 150.070312 159.445312 150.070312 C 158.621094 152.90625 156.675781 154.496094 154.007812 154.496094 C 149.039062 154.496094 146.816406 150.066406 146.816406 145.675781 C 146.816406 140.757812 149.328125 137.699219 153.371094 137.699219 C 157.125 137.699219 158.433594 139.554688 159.234375 142.328125 L 159.257812 142.40625 L 160.136719 142.289062 C 160.039062 140.816406 159.972656 139.371094 160 137.765625 C 159.925781 137.675781 157.457031 137.058594 157.457031 137.058594 C 156.289062 136.691406 155.191406 136.347656 153.289062 136.347656 C 148.128906 136.347656 142.90625 139.605469 142.90625 145.835938 Z M 163.164062 145.835938 C 163.164062 152.105469 167.09375 155.855469 173.679688 155.855469 C 176.433594 155.855469 178.53125 155.199219 179.804688 154.652344 C 180.015625 152.847656 180.222656 151.53125 180.523438 150.285156 C 180.445312 150.175781 179.699219 150.070312 179.699219 150.070312 C 178.878906 152.90625 176.933594 154.496094 174.265625 154.496094 C 169.292969 154.496094 167.074219 150.066406 167.074219 145.675781 C 167.074219 140.757812 169.582031 137.699219 173.628906 137.699219 C 177.382812 137.699219 178.691406 139.554688 179.492188 142.328125 L 179.515625 142.40625 L 180.394531 142.289062 C 180.296875 140.816406 180.230469 139.371094 180.257812 137.765625 C 180.183594 137.675781 177.710938 137.058594 177.710938 137.058594 C 176.546875 136.691406 175.441406 136.347656 173.546875 136.347656 C 168.386719 136.347656 163.164062 139.605469 163.164062 145.835938 Z M 198.175781 137.636719 L 198.855469 137.730469 C 199.523438 137.730469 201.078125 137.960938 201.078125 140.128906 L 201.078125 149.949219 C 200.863281 149.707031 189.355469 136.773438 189.355469 136.773438 C 189.28125 136.746094 188.105469 136.796875 188.105469 136.796875 L 186.917969 136.851562 L 183.859375 136.746094 L 183.765625 137.636719 L 184.207031 137.730469 C 185.347656 137.730469 186.53125 138.585938 186.53125 140.023438 L 186.53125 151.191406 C 186.53125 153.496094 185.847656 154.472656 184.234375 154.472656 L 183.859375 154.472656 L 183.765625 155.363281 C 183.859375 155.457031 185.671875 155.402344 185.671875 155.402344 L 187.476562 155.351562 L 190.902344 155.457031 L 191 154.5625 L 190.457031 154.472656 C 188.5625 154.472656 188.046875 153.828125 188.046875 151.460938 L 188.046875 140.769531 C 188.367188 141.121094 201.578125 155.820312 201.578125 155.820312 L 202.660156 155.855469 L 202.757812 155.855469 L 202.59375 153.082031 L 202.59375 141.003906 C 202.59375 137.976562 203.710938 137.726562 204.867188 137.726562 L 205.265625 137.726562 L 205.359375 136.835938 C 205.265625 136.746094 203.632812 136.796875 203.632812 136.796875 L 201.996094 136.851562 L 198.269531 136.746094 Z M 214.628906 136.792969 L 212.542969 136.851562 L 210.367188 136.792969 L 208.816406 136.746094 L 208.726562 137.636719 L 209.136719 137.730469 C 210.386719 137.730469 210.824219 138.03125 210.824219 139.726562 L 210.824219 152.414062 C 210.824219 154.472656 210.023438 154.472656 209.242188 154.472656 L 208.816406 154.472656 L 208.722656 155.363281 C 208.816406 155.457031 211.066406 155.402344 211.066406 155.402344 L 213.230469 155.347656 L 217.269531 155.453125 L 217.367188 154.5625 L 216.84375 154.472656 C 215.542969 154.472656 214.414062 154.472656 214.414062 152.363281 L 214.414062 137.789062 L 215.089844 137.886719 C 217.617188 137.886719 219.011719 139.351562 219.011719 142.011719 C 219.011719 144.839844 217.902344 146.457031 215.96875 146.457031 L 215.40625 146.457031 L 215.316406 147.347656 C 215.40625 147.4375 217.542969 147.386719 217.542969 147.386719 C 220.714844 147.066406 222.761719 144.917969 222.761719 141.902344 C 222.761719 138.429688 220.6875 136.746094 216.421875 136.746094 Z M 214.628906 136.792969 " fill-opacity="1" fill-rule="nonzero"/></g><g fill="#000000" fill-opacity="1"><g transform="translate(67.631118, 263.140514)"><g><path d="M 4.578125 -11.15625 C 4.578125 -10.695312 4.75 -10.332031 5.09375 -10.0625 C 5.445312 -9.789062 5.90625 -9.554688 6.46875 -9.359375 C 7.039062 -9.160156 7.640625 -8.953125 8.265625 -8.734375 C 8.898438 -8.515625 9.5 -8.234375 10.0625 -7.890625 C 10.625 -7.546875 11.082031 -7.082031 11.4375 -6.5 C 11.789062 -5.914062 11.96875 -5.164062 11.96875 -4.25 C 11.96875 -3.3125 11.796875 -2.507812 11.453125 -1.84375 C 11.117188 -1.175781 10.5625 -0.664062 9.78125 -0.3125 C 9 0.0390625 7.945312 0.21875 6.625 0.21875 C 5.363281 0.21875 4.335938 0.015625 3.546875 -0.390625 C 2.753906 -0.804688 2.160156 -1.347656 1.765625 -2.015625 C 1.378906 -2.679688 1.15625 -3.390625 1.09375 -4.140625 C 1.082031 -4.253906 1.117188 -4.359375 1.203125 -4.453125 C 1.296875 -4.546875 1.410156 -4.59375 1.546875 -4.59375 L 4.140625 -4.59375 C 4.398438 -4.59375 4.535156 -4.460938 4.546875 -4.203125 C 4.578125 -3.941406 4.65625 -3.648438 4.78125 -3.328125 C 4.90625 -3.003906 5.109375 -2.71875 5.390625 -2.46875 C 5.679688 -2.226562 6.078125 -2.109375 6.578125 -2.109375 C 7.160156 -2.109375 7.585938 -2.207031 7.859375 -2.40625 C 8.128906 -2.601562 8.304688 -2.867188 8.390625 -3.203125 C 8.472656 -3.535156 8.515625 -3.882812 8.515625 -4.25 C 8.515625 -4.71875 8.332031 -5.085938 7.96875 -5.359375 C 7.613281 -5.640625 7.148438 -5.878906 6.578125 -6.078125 C 6.015625 -6.273438 5.414062 -6.484375 4.78125 -6.703125 C 4.15625 -6.929688 3.5625 -7.21875 3 -7.5625 C 2.445312 -7.90625 1.988281 -8.363281 1.625 -8.9375 C 1.269531 -9.507812 1.09375 -10.25 1.09375 -11.15625 C 1.09375 -12.09375 1.265625 -12.894531 1.609375 -13.5625 C 1.960938 -14.226562 2.523438 -14.738281 3.296875 -15.09375 C 4.078125 -15.445312 5.132812 -15.625 6.46875 -15.625 C 7.71875 -15.625 8.722656 -15.414062 9.484375 -15 C 10.242188 -14.59375 10.804688 -14.054688 11.171875 -13.390625 C 11.535156 -12.722656 11.75 -12.015625 11.8125 -11.265625 C 11.8125 -11.148438 11.769531 -11.039062 11.6875 -10.9375 C 11.613281 -10.84375 11.507812 -10.796875 11.375 -10.796875 L 8.78125 -10.796875 C 8.507812 -10.796875 8.363281 -10.929688 8.34375 -11.203125 C 8.320312 -11.460938 8.265625 -11.753906 8.171875 -12.078125 C 8.078125 -12.398438 7.898438 -12.679688 7.640625 -12.921875 C 7.390625 -13.160156 7.015625 -13.28125 6.515625 -13.28125 C 5.921875 -13.28125 5.484375 -13.179688 5.203125 -12.984375 C 4.929688 -12.785156 4.757812 -12.519531 4.6875 -12.1875 C 4.613281 -11.863281 4.578125 -11.519531 4.578125 -11.15625 Z M 4.578125 -11.15625 "/></g></g></g><g fill="#000000" fill-opacity="1"><g transform="translate(84.744863, 263.140514)"><g><path d="M 11.09375 -13.515625 C 11.09375 -13.390625 11.050781 -13.28125 10.96875 -13.1875 C 10.882812 -13.101562 10.773438 -13.0625 10.640625 -13.0625 L 4.90625 -13.0625 C 4.789062 -13.0625 4.6875 -13.019531 4.59375 -12.9375 C 4.507812 -12.863281 4.46875 -12.769531 4.46875 -12.65625 C 4.46875 -12.195312 4.460938 -11.6875 4.453125 -11.125 C 4.441406 -10.570312 4.429688 -9.96875 4.421875 -9.3125 C 4.421875 -9.1875 4.460938 -9.078125 4.546875 -8.984375 C 4.640625 -8.898438 4.742188 -8.859375 4.859375 -8.859375 L 9.5 -8.859375 C 9.625 -8.859375 9.726562 -8.816406 9.8125 -8.734375 C 9.894531 -8.648438 9.9375 -8.546875 9.9375 -8.421875 L 9.9375 -6.96875 C 9.9375 -6.851562 9.894531 -6.75 9.8125 -6.65625 C 9.726562 -6.570312 9.625 -6.53125 9.5 -6.53125 L 4.859375 -6.53125 C 4.742188 -6.53125 4.640625 -6.484375 4.546875 -6.390625 C 4.460938 -6.304688 4.421875 -6.207031 4.421875 -6.09375 C 4.429688 -5.4375 4.441406 -4.828125 4.453125 -4.265625 C 4.460938 -3.710938 4.46875 -3.207031 4.46875 -2.75 C 4.46875 -2.632812 4.507812 -2.535156 4.59375 -2.453125 C 4.6875 -2.367188 4.789062 -2.328125 4.90625 -2.328125 L 10.640625 -2.328125 C 10.773438 -2.328125 10.882812 -2.28125 10.96875 -2.1875 C 11.050781 -2.101562 11.09375 -2.003906 11.09375 -1.890625 L 11.09375 -0.4375 C 11.09375 -0.320312 11.050781 -0.21875 10.96875 -0.125 C 10.882812 -0.0390625 10.773438 0 10.640625 0 L 1.546875 0 C 1.410156 0 1.300781 -0.0390625 1.21875 -0.125 C 1.132812 -0.21875 1.09375 -0.320312 1.09375 -0.4375 C 1.113281 -0.925781 1.132812 -1.78125 1.15625 -3 C 1.1875 -4.226562 1.203125 -5.796875 1.203125 -7.703125 C 1.203125 -9.617188 1.1875 -11.1875 1.15625 -12.40625 C 1.132812 -13.625 1.113281 -14.472656 1.09375 -14.953125 C 1.09375 -15.078125 1.132812 -15.179688 1.21875 -15.265625 C 1.300781 -15.359375 1.410156 -15.40625 1.546875 -15.40625 L 10.640625 -15.40625 C 10.773438 -15.40625 10.882812 -15.359375 10.96875 -15.265625 C 11.050781 -15.179688 11.09375 -15.078125 11.09375 -14.953125 Z M 11.09375 -13.515625 "/></g></g></g><g fill="#000000" fill-opacity="1"><g transform="translate(100.978765, 263.140514)"><g><path d="M 6.421875 -2.140625 C 6.929688 -2.140625 7.332031 -2.242188 7.625 -2.453125 C 7.925781 -2.660156 8.140625 -2.921875 8.265625 -3.234375 C 8.390625 -3.554688 8.460938 -3.882812 8.484375 -4.21875 C 8.515625 -4.5 8.664062 -4.640625 8.9375 -4.640625 L 11.375 -4.640625 C 11.507812 -4.640625 11.613281 -4.59375 11.6875 -4.5 C 11.769531 -4.40625 11.8125 -4.300781 11.8125 -4.1875 C 11.75 -3.332031 11.535156 -2.570312 11.171875 -1.90625 C 10.804688 -1.25 10.242188 -0.734375 9.484375 -0.359375 C 8.722656 0.015625 7.71875 0.203125 6.46875 0.203125 C 5.113281 0.203125 4.046875 -0.03125 3.265625 -0.5 C 2.484375 -0.96875 1.925781 -1.570312 1.59375 -2.3125 C 1.257812 -3.0625 1.09375 -3.835938 1.09375 -4.640625 C 1.09375 -4.953125 1.097656 -5.242188 1.109375 -5.515625 C 1.128906 -5.796875 1.148438 -6.101562 1.171875 -6.4375 C 1.191406 -6.78125 1.203125 -7.203125 1.203125 -7.703125 C 1.203125 -8.203125 1.191406 -8.617188 1.171875 -8.953125 C 1.148438 -9.285156 1.128906 -9.59375 1.109375 -9.875 C 1.097656 -10.15625 1.09375 -10.453125 1.09375 -10.765625 C 1.09375 -11.703125 1.265625 -12.53125 1.609375 -13.25 C 1.960938 -13.976562 2.523438 -14.550781 3.296875 -14.96875 C 4.078125 -15.382812 5.132812 -15.59375 6.46875 -15.59375 C 7.71875 -15.59375 8.722656 -15.382812 9.484375 -14.96875 C 10.242188 -14.550781 10.804688 -14.007812 11.171875 -13.34375 C 11.535156 -12.6875 11.75 -11.984375 11.8125 -11.234375 C 11.8125 -11.109375 11.769531 -11 11.6875 -10.90625 C 11.613281 -10.8125 11.507812 -10.765625 11.375 -10.765625 L 8.78125 -10.765625 C 8.507812 -10.765625 8.363281 -10.898438 8.34375 -11.171875 C 8.320312 -11.421875 8.265625 -11.710938 8.171875 -12.046875 C 8.078125 -12.378906 7.898438 -12.664062 7.640625 -12.90625 C 7.390625 -13.144531 7.015625 -13.265625 6.515625 -13.265625 C 5.921875 -13.265625 5.484375 -13.128906 5.203125 -12.859375 C 4.929688 -12.597656 4.757812 -12.273438 4.6875 -11.890625 C 4.613281 -11.503906 4.578125 -11.128906 4.578125 -10.765625 L 4.578125 -4.640625 C 4.578125 -4.503906 4.585938 -4.300781 4.609375 -4.03125 C 4.628906 -3.757812 4.691406 -3.476562 4.796875 -3.1875 C 4.910156 -2.894531 5.09375 -2.644531 5.34375 -2.4375 C 5.601562 -2.238281 5.960938 -2.140625 6.421875 -2.140625 Z M 6.421875 -2.140625 "/></g></g></g><g fill="#000000" fill-opacity="1"><g transform="translate(117.916546, 263.140514)"><g><path d="M 11.359375 -15.40625 C 11.484375 -15.40625 11.585938 -15.359375 11.671875 -15.265625 C 11.753906 -15.179688 11.796875 -15.078125 11.796875 -14.953125 C 11.773438 -14.578125 11.753906 -14.003906 11.734375 -13.234375 C 11.710938 -12.460938 11.691406 -11.582031 11.671875 -10.59375 C 11.648438 -9.613281 11.628906 -8.597656 11.609375 -7.546875 C 11.597656 -6.503906 11.59375 -5.515625 11.59375 -4.578125 C 11.59375 -3.648438 11.4375 -2.820312 11.125 -2.09375 C 10.820312 -1.375 10.296875 -0.804688 9.546875 -0.390625 C 8.796875 0.0234375 7.765625 0.234375 6.453125 0.234375 C 5.429688 0.234375 4.59375 0.0976562 3.9375 -0.171875 C 3.28125 -0.441406 2.753906 -0.804688 2.359375 -1.265625 C 1.972656 -1.722656 1.695312 -2.238281 1.53125 -2.8125 C 1.375 -3.382812 1.296875 -3.972656 1.296875 -4.578125 C 1.296875 -5.515625 1.285156 -6.503906 1.265625 -7.546875 C 1.253906 -8.597656 1.238281 -9.613281 1.21875 -10.59375 C 1.195312 -11.582031 1.175781 -12.460938 1.15625 -13.234375 C 1.132812 -14.003906 1.113281 -14.578125 1.09375 -14.953125 C 1.09375 -15.078125 1.132812 -15.179688 1.21875 -15.265625 C 1.300781 -15.359375 1.410156 -15.40625 1.546875 -15.40625 L 4.109375 -15.40625 C 4.234375 -15.40625 4.335938 -15.359375 4.421875 -15.265625 C 4.503906 -15.179688 4.546875 -15.078125 4.546875 -14.953125 L 4.546875 -4.578125 C 4.546875 -4.441406 4.554688 -4.238281 4.578125 -3.96875 C 4.609375 -3.695312 4.675781 -3.414062 4.78125 -3.125 C 4.894531 -2.84375 5.078125 -2.597656 5.328125 -2.390625 C 5.585938 -2.191406 5.945312 -2.09375 6.40625 -2.09375 C 6.988281 -2.09375 7.414062 -2.222656 7.6875 -2.484375 C 7.957031 -2.742188 8.132812 -3.066406 8.21875 -3.453125 C 8.300781 -3.835938 8.34375 -4.210938 8.34375 -4.578125 L 8.34375 -14.953125 C 8.34375 -15.078125 8.382812 -15.179688 8.46875 -15.265625 C 8.5625 -15.359375 8.664062 -15.40625 8.78125 -15.40625 Z M 11.359375 -15.40625 "/></g></g></g><g fill="#000000" fill-opacity="1"><g transform="translate(134.854327, 263.140514)"><g><path d="M 11.3125 0 L 8.515625 0 C 8.398438 0 8.296875 -0.0390625 8.203125 -0.125 C 8.117188 -0.21875 8.078125 -0.320312 8.078125 -0.4375 L 8.078125 -3.828125 C 8.078125 -4.160156 8.023438 -4.488281 7.921875 -4.8125 C 7.816406 -5.132812 7.628906 -5.398438 7.359375 -5.609375 C 7.085938 -5.828125 6.707031 -5.9375 6.21875 -5.9375 L 4.859375 -5.9375 C 4.742188 -5.9375 4.640625 -5.890625 4.546875 -5.796875 C 4.460938 -5.710938 4.425781 -5.613281 4.4375 -5.5 C 4.4375 -4.207031 4.445312 -3.132812 4.46875 -2.28125 C 4.5 -1.4375 4.519531 -0.820312 4.53125 -0.4375 C 4.53125 -0.320312 4.488281 -0.21875 4.40625 -0.125 C 4.332031 -0.0390625 4.226562 0 4.09375 0 L 1.546875 0 C 1.410156 0 1.300781 -0.0390625 1.21875 -0.125 C 1.132812 -0.21875 1.09375 -0.320312 1.09375 -0.4375 C 1.113281 -0.925781 1.132812 -1.78125 1.15625 -3 C 1.1875 -4.226562 1.203125 -5.796875 1.203125 -7.703125 C 1.203125 -9.617188 1.1875 -11.1875 1.15625 -12.40625 C 1.132812 -13.625 1.113281 -14.472656 1.09375 -14.953125 C 1.09375 -15.078125 1.132812 -15.179688 1.21875 -15.265625 C 1.300781 -15.359375 1.410156 -15.40625 1.546875 -15.40625 L 6.3125 -15.40625 C 7.03125 -15.40625 7.710938 -15.335938 8.359375 -15.203125 C 9.003906 -15.066406 9.578125 -14.828125 10.078125 -14.484375 C 10.578125 -14.148438 10.96875 -13.679688 11.25 -13.078125 C 11.539062 -12.484375 11.6875 -11.71875 11.6875 -10.78125 C 11.6875 -9.914062 11.488281 -9.195312 11.09375 -8.625 C 10.707031 -8.0625 10.207031 -7.617188 9.59375 -7.296875 C 9.53125 -7.273438 9.5 -7.226562 9.5 -7.15625 C 9.5 -7.082031 9.535156 -7.019531 9.609375 -6.96875 C 10.171875 -6.707031 10.632812 -6.320312 11 -5.8125 C 11.363281 -5.3125 11.546875 -4.648438 11.546875 -3.828125 C 11.546875 -3.035156 11.566406 -2.359375 11.609375 -1.796875 C 11.660156 -1.234375 11.707031 -0.796875 11.75 -0.484375 C 11.757812 -0.347656 11.71875 -0.234375 11.625 -0.140625 C 11.539062 -0.046875 11.4375 0 11.3125 0 Z M 6.359375 -13.0625 L 4.90625 -13.0625 C 4.789062 -13.0625 4.6875 -13.019531 4.59375 -12.9375 C 4.507812 -12.863281 4.46875 -12.769531 4.46875 -12.65625 C 4.46875 -12.125 4.457031 -11.53125 4.4375 -10.875 C 4.425781 -10.226562 4.421875 -9.507812 4.421875 -8.71875 C 4.421875 -8.582031 4.460938 -8.472656 4.546875 -8.390625 C 4.640625 -8.304688 4.742188 -8.265625 4.859375 -8.265625 L 6.359375 -8.265625 C 6.835938 -8.265625 7.210938 -8.40625 7.484375 -8.6875 C 7.753906 -8.96875 7.941406 -9.300781 8.046875 -9.6875 C 8.148438 -10.082031 8.203125 -10.445312 8.203125 -10.78125 C 8.203125 -11.363281 8.09375 -11.820312 7.875 -12.15625 C 7.664062 -12.488281 7.414062 -12.722656 7.125 -12.859375 C 6.84375 -12.992188 6.585938 -13.0625 6.359375 -13.0625 Z M 6.359375 -13.0625 "/></g></g></g><g fill="#000000" fill-opacity="1"><g transform="translate(151.72611, 263.140514)"><g><path d="M 4.53125 -0.4375 C 4.53125 -0.320312 4.488281 -0.21875 4.40625 -0.125 C 4.332031 -0.0390625 4.226562 0 4.09375 0 L 1.546875 0 C 1.410156 0 1.300781 -0.0390625 1.21875 -0.125 C 1.132812 -0.21875 1.09375 -0.320312 1.09375 -0.4375 C 1.113281 -0.925781 1.132812 -1.78125 1.15625 -3 C 1.1875 -4.226562 1.203125 -5.796875 1.203125 -7.703125 C 1.203125 -9.617188 1.1875 -11.1875 1.15625 -12.40625 C 1.132812 -13.625 1.113281 -14.472656 1.09375 -14.953125 C 1.09375 -15.078125 1.132812 -15.179688 1.21875 -15.265625 C 1.300781 -15.359375 1.410156 -15.40625 1.546875 -15.40625 L 4.09375 -15.40625 C 4.226562 -15.40625 4.332031 -15.359375 4.40625 -15.265625 C 4.488281 -15.179688 4.53125 -15.078125 4.53125 -14.953125 C 4.519531 -14.472656 4.5 -13.625 4.46875 -12.40625 C 4.4375 -11.1875 4.421875 -9.617188 4.421875 -7.703125 C 4.421875 -5.796875 4.4375 -4.226562 4.46875 -3 C 4.5 -1.78125 4.519531 -0.925781 4.53125 -0.4375 Z M 4.53125 -0.4375 "/></g></g></g><g fill="#000000" fill-opacity="1"><g transform="translate(161.383184, 263.140514)"><g><path d="M 11.859375 -13.515625 C 11.859375 -13.390625 11.8125 -13.28125 11.71875 -13.1875 C 11.632812 -13.101562 11.535156 -13.0625 11.421875 -13.0625 L 8.5625 -13.0625 C 8.4375 -13.0625 8.332031 -13.019531 8.25 -12.9375 C 8.175781 -12.863281 8.140625 -12.769531 8.140625 -12.65625 C 8.128906 -12.019531 8.117188 -11.289062 8.109375 -10.46875 C 8.097656 -9.644531 8.09375 -8.722656 8.09375 -7.703125 C 8.09375 -5.796875 8.101562 -4.226562 8.125 -3 C 8.144531 -1.78125 8.164062 -0.925781 8.1875 -0.4375 C 8.195312 -0.320312 8.15625 -0.21875 8.0625 -0.125 C 7.976562 -0.0390625 7.878906 0 7.765625 0 L 5.1875 0 C 5.070312 0 4.96875 -0.0390625 4.875 -0.125 C 4.789062 -0.21875 4.75 -0.320312 4.75 -0.4375 C 4.78125 -0.925781 4.804688 -1.78125 4.828125 -3 C 4.847656 -4.226562 4.859375 -5.796875 4.859375 -7.703125 C 4.859375 -8.722656 4.851562 -9.644531 4.84375 -10.46875 C 4.84375 -11.289062 4.832031 -12.019531 4.8125 -12.65625 C 4.8125 -12.769531 4.769531 -12.863281 4.6875 -12.9375 C 4.613281 -13.019531 4.507812 -13.0625 4.375 -13.0625 L 1.546875 -13.0625 C 1.421875 -13.0625 1.3125 -13.101562 1.21875 -13.1875 C 1.132812 -13.28125 1.09375 -13.390625 1.09375 -13.515625 L 1.09375 -14.953125 C 1.09375 -15.078125 1.132812 -15.179688 1.21875 -15.265625 C 1.3125 -15.359375 1.421875 -15.40625 1.546875 -15.40625 L 11.421875 -15.40625 C 11.535156 -15.40625 11.632812 -15.359375 11.71875 -15.265625 C 11.8125 -15.179688 11.859375 -15.078125 11.859375 -14.953125 Z M 11.859375 -13.515625 "/></g></g></g><g fill="#000000" fill-opacity="1"><g transform="translate(178.364956, 263.140514)"><g><path d="M 9.96875 -10.6875 C 9.53125 -9.695312 9.171875 -8.851562 8.890625 -8.15625 C 8.609375 -7.46875 8.394531 -6.945312 8.25 -6.59375 C 8.164062 -6.375 8.125 -6.148438 8.125 -5.921875 C 8.101562 -5.628906 8.082031 -5.28125 8.0625 -4.875 C 8.050781 -4.46875 8.046875 -4.007812 8.046875 -3.5 C 8.046875 -2.757812 8.054688 -2.132812 8.078125 -1.625 C 8.109375 -1.125 8.128906 -0.738281 8.140625 -0.46875 C 8.148438 -0.332031 8.109375 -0.21875 8.015625 -0.125 C 7.929688 -0.0390625 7.828125 0 7.703125 0 L 5.1875 0 C 5.0625 0 4.953125 -0.0390625 4.859375 -0.125 C 4.773438 -0.21875 4.738281 -0.332031 4.75 -0.46875 C 4.769531 -0.738281 4.789062 -1.125 4.8125 -1.625 C 4.832031 -2.132812 4.84375 -2.757812 4.84375 -3.5 C 4.84375 -4.007812 4.832031 -4.46875 4.8125 -4.875 C 4.800781 -5.28125 4.789062 -5.628906 4.78125 -5.921875 C 4.78125 -6.148438 4.734375 -6.375 4.640625 -6.59375 C 4.492188 -6.945312 4.28125 -7.46875 4 -8.15625 C 3.726562 -8.851562 3.367188 -9.695312 2.921875 -10.6875 C 2.484375 -11.675781 2.101562 -12.507812 1.78125 -13.1875 C 1.457031 -13.875 1.207031 -14.40625 1.03125 -14.78125 C 0.957031 -14.914062 0.960938 -15.050781 1.046875 -15.1875 C 1.140625 -15.332031 1.269531 -15.40625 1.4375 -15.40625 L 3.875 -15.40625 C 4.082031 -15.40625 4.222656 -15.300781 4.296875 -15.09375 C 4.378906 -14.78125 4.539062 -14.253906 4.78125 -13.515625 C 5.019531 -12.773438 5.347656 -11.832031 5.765625 -10.6875 C 5.941406 -10.207031 6.109375 -9.75 6.265625 -9.3125 C 6.296875 -9.21875 6.351562 -9.171875 6.4375 -9.171875 C 6.53125 -9.171875 6.59375 -9.21875 6.625 -9.3125 C 6.78125 -9.75 6.945312 -10.207031 7.125 -10.6875 C 7.539062 -11.832031 7.867188 -12.773438 8.109375 -13.515625 C 8.347656 -14.253906 8.515625 -14.78125 8.609375 -15.09375 C 8.679688 -15.300781 8.816406 -15.40625 9.015625 -15.40625 L 11.46875 -15.40625 C 11.625 -15.40625 11.742188 -15.332031 11.828125 -15.1875 C 11.921875 -15.050781 11.929688 -14.914062 11.859375 -14.78125 C 11.679688 -14.40625 11.429688 -13.875 11.109375 -13.1875 C 10.785156 -12.507812 10.40625 -11.675781 9.96875 -10.6875 Z M 9.96875 -10.6875 "/></g></g></g><g fill="#000000" fill-opacity="1"><g transform="translate(195.306894, 263.140514)"><g/></g></g><g fill="#000000" fill-opacity="1"><g transform="translate(205.887804, 263.140514)"><g><path d="M 9.703125 -7.875 C 10.316406 -7.550781 10.820312 -7.109375 11.21875 -6.546875 C 11.613281 -5.992188 11.8125 -5.285156 11.8125 -4.421875 C 11.8125 -3.492188 11.640625 -2.675781 11.296875 -1.96875 C 10.960938 -1.269531 10.40625 -0.726562 9.625 -0.34375 C 8.84375 0.0390625 7.785156 0.234375 6.453125 0.234375 C 5.203125 0.234375 4.191406 0.03125 3.421875 -0.375 C 2.660156 -0.78125 2.097656 -1.316406 1.734375 -1.984375 C 1.367188 -2.648438 1.164062 -3.359375 1.125 -4.109375 C 1.101562 -4.234375 1.132812 -4.34375 1.21875 -4.4375 C 1.3125 -4.53125 1.421875 -4.578125 1.546875 -4.578125 L 4.140625 -4.578125 C 4.410156 -4.578125 4.554688 -4.445312 4.578125 -4.1875 C 4.585938 -3.9375 4.640625 -3.644531 4.734375 -3.3125 C 4.835938 -2.976562 5.015625 -2.691406 5.265625 -2.453125 C 5.523438 -2.210938 5.90625 -2.09375 6.40625 -2.09375 C 6.988281 -2.09375 7.421875 -2.207031 7.703125 -2.4375 C 7.984375 -2.675781 8.160156 -2.972656 8.234375 -3.328125 C 8.316406 -3.691406 8.359375 -4.054688 8.359375 -4.421875 C 8.359375 -4.753906 8.300781 -5.113281 8.1875 -5.5 C 8.082031 -5.882812 7.894531 -6.210938 7.625 -6.484375 C 7.363281 -6.753906 6.992188 -6.890625 6.515625 -6.890625 L 5.375 -6.890625 C 5.25 -6.890625 5.140625 -6.929688 5.046875 -7.015625 C 4.960938 -7.109375 4.921875 -7.210938 4.921875 -7.328125 L 4.921875 -8.796875 C 4.921875 -8.910156 4.960938 -9.007812 5.046875 -9.09375 C 5.140625 -9.175781 5.25 -9.21875 5.375 -9.21875 L 6.34375 -9.21875 C 6.820312 -9.21875 7.191406 -9.320312 7.453125 -9.53125 C 7.722656 -9.75 7.910156 -10.019531 8.015625 -10.34375 C 8.128906 -10.664062 8.1875 -10.992188 8.1875 -11.328125 C 8.1875 -11.890625 8.03125 -12.351562 7.71875 -12.71875 C 7.414062 -13.082031 6.976562 -13.265625 6.40625 -13.265625 C 5.90625 -13.265625 5.523438 -13.144531 5.265625 -12.90625 C 5.015625 -12.664062 4.835938 -12.382812 4.734375 -12.0625 C 4.640625 -11.738281 4.585938 -11.441406 4.578125 -11.171875 C 4.554688 -10.910156 4.410156 -10.78125 4.140625 -10.78125 L 1.546875 -10.78125 C 1.421875 -10.78125 1.3125 -10.828125 1.21875 -10.921875 C 1.132812 -11.015625 1.101562 -11.117188 1.125 -11.234375 C 1.164062 -11.984375 1.367188 -12.691406 1.734375 -13.359375 C 2.097656 -14.023438 2.660156 -14.5625 3.421875 -14.96875 C 4.191406 -15.382812 5.203125 -15.59375 6.453125 -15.59375 C 8.128906 -15.59375 9.410156 -15.226562 10.296875 -14.5 C 11.191406 -13.78125 11.640625 -12.722656 11.640625 -11.328125 C 11.640625 -10.503906 11.457031 -9.84375 11.09375 -9.34375 C 10.738281 -8.851562 10.273438 -8.46875 9.703125 -8.1875 C 9.628906 -8.15625 9.59375 -8.101562 9.59375 -8.03125 C 9.59375 -7.957031 9.628906 -7.90625 9.703125 -7.875 Z M 9.703125 -7.875 "/></g></g></g><g fill="#000000" fill-opacity="1"><g transform="translate(222.847581, 263.140514)"><g><path d="M 6.453125 -10.515625 C 7.785156 -10.515625 8.84375 -10.257812 9.625 -9.75 C 10.40625 -9.25 10.960938 -8.585938 11.296875 -7.765625 C 11.640625 -6.941406 11.8125 -6.0625 11.8125 -5.125 C 11.8125 -4.195312 11.640625 -3.320312 11.296875 -2.5 C 10.960938 -1.6875 10.40625 -1.023438 9.625 -0.515625 C 8.84375 -0.015625 7.785156 0.234375 6.453125 0.234375 C 5.203125 0.234375 4.191406 0.03125 3.421875 -0.375 C 2.660156 -0.78125 2.097656 -1.316406 1.734375 -1.984375 C 1.367188 -2.648438 1.164062 -3.359375 1.125 -4.109375 C 1.101562 -4.234375 1.132812 -4.34375 1.21875 -4.4375 C 1.3125 -4.53125 1.421875 -4.578125 1.546875 -4.578125 L 4.140625 -4.578125 C 4.410156 -4.578125 4.554688 -4.445312 4.578125 -4.1875 C 4.585938 -3.9375 4.640625 -3.644531 4.734375 -3.3125 C 4.835938 -2.976562 5.015625 -2.691406 5.265625 -2.453125 C 5.523438 -2.210938 5.90625 -2.09375 6.40625 -2.09375 C 6.84375 -2.09375 7.191406 -2.191406 7.453125 -2.390625 C 7.722656 -2.597656 7.921875 -2.863281 8.046875 -3.1875 C 8.171875 -3.507812 8.253906 -3.847656 8.296875 -4.203125 C 8.335938 -4.554688 8.359375 -4.863281 8.359375 -5.125 C 8.359375 -5.40625 8.335938 -5.71875 8.296875 -6.0625 C 8.253906 -6.414062 8.171875 -6.75 8.046875 -7.0625 C 7.921875 -7.382812 7.722656 -7.648438 7.453125 -7.859375 C 7.191406 -8.078125 6.84375 -8.1875 6.40625 -8.1875 C 5.863281 -8.1875 5.457031 -8.082031 5.1875 -7.875 C 4.925781 -7.664062 4.75 -7.488281 4.65625 -7.34375 C 4.570312 -7.195312 4.453125 -7.125 4.296875 -7.125 L 1.5625 -7.125 C 1.445312 -7.125 1.34375 -7.171875 1.25 -7.265625 C 1.164062 -7.359375 1.125 -7.46875 1.125 -7.59375 C 1.15625 -7.882812 1.175781 -8.316406 1.1875 -8.890625 C 1.195312 -9.460938 1.203125 -10.195312 1.203125 -11.09375 C 1.203125 -12.039062 1.191406 -12.835938 1.171875 -13.484375 C 1.148438 -14.128906 1.132812 -14.613281 1.125 -14.9375 C 1.125 -15.070312 1.160156 -15.179688 1.234375 -15.265625 C 1.316406 -15.359375 1.425781 -15.40625 1.5625 -15.40625 L 11.171875 -15.40625 C 11.296875 -15.40625 11.398438 -15.359375 11.484375 -15.265625 C 11.566406 -15.179688 11.609375 -15.078125 11.609375 -14.953125 L 11.609375 -13.515625 C 11.609375 -13.390625 11.566406 -13.28125 11.484375 -13.1875 C 11.398438 -13.101562 11.296875 -13.0625 11.171875 -13.0625 L 4.890625 -13.0625 C 4.765625 -13.0625 4.65625 -13.019531 4.5625 -12.9375 C 4.476562 -12.863281 4.4375 -12.769531 4.4375 -12.65625 C 4.4375 -12.414062 4.4375 -12.164062 4.4375 -11.90625 C 4.4375 -11.65625 4.4375 -11.382812 4.4375 -11.09375 C 4.4375 -10.914062 4.4375 -10.722656 4.4375 -10.515625 C 4.4375 -10.429688 4.46875 -10.363281 4.53125 -10.3125 C 4.601562 -10.257812 4.6875 -10.25 4.78125 -10.28125 C 5.257812 -10.4375 5.816406 -10.515625 6.453125 -10.515625 Z M 6.453125 -10.515625 "/></g></g></g><g fill="#000000" fill-opacity="1"><g transform="translate(239.807357, 263.140514)"><g><path d="M 11.8125 -10.765625 C 11.8125 -10.453125 11.800781 -10.15625 11.78125 -9.875 C 11.769531 -9.59375 11.753906 -9.285156 11.734375 -8.953125 C 11.722656 -8.617188 11.71875 -8.203125 11.71875 -7.703125 C 11.71875 -7.203125 11.722656 -6.78125 11.734375 -6.4375 C 11.753906 -6.101562 11.769531 -5.796875 11.78125 -5.515625 C 11.800781 -5.242188 11.8125 -4.953125 11.8125 -4.640625 C 11.8125 -3.703125 11.640625 -2.867188 11.296875 -2.140625 C 10.960938 -1.421875 10.40625 -0.847656 9.625 -0.421875 C 8.84375 -0.00390625 7.789062 0.203125 6.46875 0.203125 C 5.113281 0.203125 4.046875 -0.03125 3.265625 -0.5 C 2.484375 -0.96875 1.925781 -1.570312 1.59375 -2.3125 C 1.257812 -3.0625 1.09375 -3.835938 1.09375 -4.640625 C 1.09375 -4.953125 1.097656 -5.242188 1.109375 -5.515625 C 1.128906 -5.796875 1.148438 -6.101562 1.171875 -6.4375 C 1.191406 -6.78125 1.203125 -7.203125 1.203125 -7.703125 C 1.203125 -8.203125 1.191406 -8.617188 1.171875 -8.953125 C 1.148438 -9.285156 1.128906 -9.59375 1.109375 -9.875 C 1.097656 -10.15625 1.09375 -10.453125 1.09375 -10.765625 C 1.09375 -11.703125 1.265625 -12.53125 1.609375 -13.25 C 1.960938 -13.976562 2.523438 -14.550781 3.296875 -14.96875 C 4.078125 -15.382812 5.132812 -15.59375 6.46875 -15.59375 C 7.800781 -15.59375 8.859375 -15.359375 9.640625 -14.890625 C 10.429688 -14.421875 10.988281 -13.816406 11.3125 -13.078125 C 11.644531 -12.335938 11.8125 -11.566406 11.8125 -10.765625 Z M 6.421875 -2.140625 C 6.992188 -2.140625 7.421875 -2.269531 7.703125 -2.53125 C 7.984375 -2.789062 8.160156 -3.113281 8.234375 -3.5 C 8.316406 -3.894531 8.359375 -4.273438 8.359375 -4.640625 L 8.359375 -7.171875 C 8.359375 -7.484375 8.226562 -7.671875 7.96875 -7.734375 C 7.71875 -7.796875 7.40625 -7.769531 7.03125 -7.65625 C 6.65625 -7.539062 6.273438 -7.347656 5.890625 -7.078125 C 5.515625 -6.816406 5.203125 -6.503906 4.953125 -6.140625 C 4.703125 -5.785156 4.578125 -5.394531 4.578125 -4.96875 L 4.578125 -4.640625 C 4.578125 -4.503906 4.585938 -4.300781 4.609375 -4.03125 C 4.628906 -3.757812 4.691406 -3.476562 4.796875 -3.1875 C 4.910156 -2.894531 5.09375 -2.644531 5.34375 -2.4375 C 5.601562 -2.238281 5.960938 -2.140625 6.421875 -2.140625 Z M 8.359375 -10.421875 L 8.359375 -10.765625 C 8.359375 -10.890625 8.34375 -11.085938 8.3125 -11.359375 C 8.28125 -11.628906 8.207031 -11.910156 8.09375 -12.203125 C 7.988281 -12.503906 7.8125 -12.753906 7.5625 -12.953125 C 7.3125 -13.160156 6.960938 -13.265625 6.515625 -13.265625 C 5.921875 -13.265625 5.484375 -13.128906 5.203125 -12.859375 C 4.929688 -12.597656 4.757812 -12.273438 4.6875 -11.890625 C 4.613281 -11.503906 4.578125 -11.128906 4.578125 -10.765625 L 4.578125 -8.234375 C 4.578125 -7.921875 4.703125 -7.726562 4.953125 -7.65625 C 5.203125 -7.59375 5.515625 -7.617188 5.890625 -7.734375 C 6.273438 -7.859375 6.65625 -8.050781 7.03125 -8.3125 C 7.40625 -8.582031 7.71875 -8.894531 7.96875 -9.25 C 8.226562 -9.613281 8.359375 -10.003906 8.359375 -10.421875 Z M 8.359375 -10.421875 "/></g></g></g><g fill="#000000" fill-opacity="1"><g transform="translate(256.767134, 263.140514)"><g><path d="M 6 -8.796875 C 6.132812 -8.816406 6.25 -8.78125 6.34375 -8.6875 C 6.4375 -8.601562 6.484375 -8.492188 6.484375 -8.359375 L 6.484375 -6.96875 C 6.484375 -6.851562 6.4375 -6.75 6.34375 -6.65625 C 6.25 -6.570312 6.132812 -6.539062 6 -6.5625 C 5.769531 -6.570312 5.457031 -6.582031 5.0625 -6.59375 C 4.675781 -6.613281 4.25 -6.625 3.78125 -6.625 C 3.3125 -6.625 2.878906 -6.613281 2.484375 -6.59375 C 2.097656 -6.582031 1.789062 -6.570312 1.5625 -6.5625 C 1.445312 -6.539062 1.335938 -6.570312 1.234375 -6.65625 C 1.140625 -6.75 1.09375 -6.851562 1.09375 -6.96875 L 1.09375 -8.359375 C 1.09375 -8.492188 1.140625 -8.601562 1.234375 -8.6875 C 1.335938 -8.78125 1.445312 -8.816406 1.5625 -8.796875 C 1.789062 -8.785156 2.097656 -8.769531 2.484375 -8.75 C 2.878906 -8.726562 3.3125 -8.71875 3.78125 -8.71875 C 4.25 -8.71875 4.675781 -8.726562 5.0625 -8.75 C 5.457031 -8.769531 5.769531 -8.785156 6 -8.796875 Z M 6 -8.796875 "/></g></g></g><g fill="#000000" fill-opacity="1"><g transform="translate(268.381856, 263.140514)"><g><path d="M 11.21875 -15.40625 C 11.332031 -15.40625 11.429688 -15.359375 11.515625 -15.265625 C 11.609375 -15.179688 11.65625 -15.078125 11.65625 -14.953125 L 11.65625 -13.546875 C 11.65625 -13.222656 11.578125 -12.925781 11.421875 -12.65625 C 11.179688 -12.238281 10.785156 -11.515625 10.234375 -10.484375 C 9.691406 -9.453125 9.046875 -8.132812 8.296875 -6.53125 C 7.503906 -4.84375 6.894531 -3.472656 6.46875 -2.421875 C 6.039062 -1.367188 5.757812 -0.65625 5.625 -0.28125 C 5.550781 -0.09375 5.414062 0 5.21875 0 L 2.578125 0 C 2.398438 0 2.269531 -0.0664062 2.1875 -0.203125 C 2.101562 -0.347656 2.097656 -0.492188 2.171875 -0.640625 C 2.453125 -1.117188 2.851562 -1.851562 3.375 -2.84375 C 3.894531 -3.832031 4.5 -5.0625 5.1875 -6.53125 C 5.96875 -8.1875 6.566406 -9.535156 6.984375 -10.578125 C 7.398438 -11.617188 7.679688 -12.335938 7.828125 -12.734375 C 7.859375 -12.804688 7.847656 -12.878906 7.796875 -12.953125 C 7.742188 -13.023438 7.675781 -13.0625 7.59375 -13.0625 L 1.6875 -13.0625 C 1.570312 -13.0625 1.472656 -13.101562 1.390625 -13.1875 C 1.316406 -13.28125 1.28125 -13.390625 1.28125 -13.515625 L 1.28125 -14.953125 C 1.28125 -15.078125 1.316406 -15.179688 1.390625 -15.265625 C 1.472656 -15.359375 1.570312 -15.40625 1.6875 -15.40625 Z M 11.21875 -15.40625 "/></g></g></g><g fill="#000000" fill-opacity="1"><g transform="translate(285.341633, 263.140514)"><g><path d="M 11.8125 -10.765625 C 11.8125 -10.453125 11.800781 -10.15625 11.78125 -9.875 C 11.769531 -9.59375 11.753906 -9.285156 11.734375 -8.953125 C 11.722656 -8.617188 11.71875 -8.203125 11.71875 -7.703125 C 11.71875 -7.203125 11.722656 -6.78125 11.734375 -6.4375 C 11.753906 -6.101562 11.769531 -5.796875 11.78125 -5.515625 C 11.800781 -5.242188 11.8125 -4.953125 11.8125 -4.640625 C 11.8125 -3.703125 11.640625 -2.867188 11.296875 -2.140625 C 10.960938 -1.421875 10.40625 -0.847656 9.625 -0.421875 C 8.84375 -0.00390625 7.789062 0.203125 6.46875 0.203125 C 5.113281 0.203125 4.046875 -0.03125 3.265625 -0.5 C 2.484375 -0.96875 1.925781 -1.570312 1.59375 -2.3125 C 1.257812 -3.0625 1.09375 -3.835938 1.09375 -4.640625 C 1.09375 -4.953125 1.097656 -5.242188 1.109375 -5.515625 C 1.128906 -5.796875 1.148438 -6.101562 1.171875 -6.4375 C 1.191406 -6.78125 1.203125 -7.203125 1.203125 -7.703125 C 1.203125 -8.203125 1.191406 -8.617188 1.171875 -8.953125 C 1.148438 -9.285156 1.128906 -9.59375 1.109375 -9.875 C 1.097656 -10.15625 1.09375 -10.453125 1.09375 -10.765625 C 1.09375 -11.703125 1.265625 -12.53125 1.609375 -13.25 C 1.960938 -13.976562 2.523438 -14.550781 3.296875 -14.96875 C 4.078125 -15.382812 5.132812 -15.59375 6.46875 -15.59375 C 7.800781 -15.59375 8.859375 -15.359375 9.640625 -14.890625 C 10.429688 -14.421875 10.988281 -13.816406 11.3125 -13.078125 C 11.644531 -12.335938 11.8125 -11.566406 11.8125 -10.765625 Z M 6.421875 -2.140625 C 6.992188 -2.140625 7.421875 -2.269531 7.703125 -2.53125 C 7.984375 -2.789062 8.160156 -3.113281 8.234375 -3.5 C 8.316406 -3.894531 8.359375 -4.273438 8.359375 -4.640625 L 8.359375 -7.171875 C 8.359375 -7.484375 8.226562 -7.671875 7.96875 -7.734375 C 7.71875 -7.796875 7.40625 -7.769531 7.03125 -7.65625 C 6.65625 -7.539062 6.273438 -7.347656 5.890625 -7.078125 C 5.515625 -6.816406 5.203125 -6.503906 4.953125 -6.140625 C 4.703125 -5.785156 4.578125 -5.394531 4.578125 -4.96875 L 4.578125 -4.640625 C 4.578125 -4.503906 4.585938 -4.300781 4.609375 -4.03125 C 4.628906 -3.757812 4.691406 -3.476562 4.796875 -3.1875 C 4.910156 -2.894531 5.09375 -2.644531 5.34375 -2.4375 C 5.601562 -2.238281 5.960938 -2.140625 6.421875 -2.140625 Z M 8.359375 -10.421875 L 8.359375 -10.765625 C 8.359375 -10.890625 8.34375 -11.085938 8.3125 -11.359375 C 8.28125 -11.628906 8.207031 -11.910156 8.09375 -12.203125 C 7.988281 -12.503906 7.8125 -12.753906 7.5625 -12.953125 C 7.3125 -13.160156 6.960938 -13.265625 6.515625 -13.265625 C 5.921875 -13.265625 5.484375 -13.128906 5.203125 -12.859375 C 4.929688 -12.597656 4.757812 -12.273438 4.6875 -11.890625 C 4.613281 -11.503906 4.578125 -11.128906 4.578125 -10.765625 L 4.578125 -8.234375 C 4.578125 -7.921875 4.703125 -7.726562 4.953125 -7.65625 C 5.203125 -7.59375 5.515625 -7.617188 5.890625 -7.734375 C 6.273438 -7.859375 6.65625 -8.050781 7.03125 -8.3125 C 7.40625 -8.582031 7.71875 -8.894531 7.96875 -9.25 C 8.226562 -9.613281 8.359375 -10.003906 8.359375 -10.421875 Z M 8.359375 -10.421875 "/></g></g></g><g fill="#000000" fill-opacity="1"><g transform="translate(302.30141, 263.140514)"><g><path d="M 8.90625 -15.40625 C 9.03125 -15.40625 9.132812 -15.359375 9.21875 -15.265625 C 9.300781 -15.179688 9.34375 -15.078125 9.34375 -14.953125 C 9.332031 -14.472656 9.3125 -13.625 9.28125 -12.40625 C 9.25 -11.1875 9.234375 -9.617188 9.234375 -7.703125 C 9.234375 -5.796875 9.25 -4.226562 9.28125 -3 C 9.3125 -1.78125 9.332031 -0.925781 9.34375 -0.4375 C 9.34375 -0.320312 9.300781 -0.21875 9.21875 -0.125 C 9.132812 -0.0390625 9.03125 0 8.90625 0 L 6.359375 0 C 6.222656 0 6.109375 -0.0390625 6.015625 -0.125 C 5.929688 -0.21875 5.898438 -0.320312 5.921875 -0.4375 C 5.929688 -0.925781 5.953125 -1.78125 5.984375 -3 C 6.015625 -4.226562 6.03125 -5.796875 6.03125 -7.703125 C 6.03125 -8.429688 6.023438 -9.109375 6.015625 -9.734375 C 6.003906 -10.367188 5.992188 -10.953125 5.984375 -11.484375 C 5.984375 -11.546875 5.953125 -11.59375 5.890625 -11.625 C 5.835938 -11.664062 5.78125 -11.660156 5.71875 -11.609375 L 4.25 -10.78125 C 4.101562 -10.6875 3.957031 -10.679688 3.8125 -10.765625 C 3.664062 -10.847656 3.59375 -10.976562 3.59375 -11.15625 L 3.59375 -13.46875 C 3.59375 -13.625 3.664062 -13.75 3.8125 -13.84375 L 6.40625 -15.328125 C 6.476562 -15.378906 6.550781 -15.40625 6.625 -15.40625 Z M 8.90625 -15.40625 "/></g></g></g></svg>